<?xml version="1.0" encoding="UTF-8"?>
<svg id="_ëîé_1" data-name="‘ëîé_1" xmlns="http://www.w3.org/2000/svg" viewBox="0 0 3200 2000">
  <defs>
    <style>
      .cls-1 {
        fill: #adc8fe;
      }

      .cls-2 {
        fill: #fff;
      }

      .cls-3 {
        fill: #82b378;
      }

      .cls-4 {
        fill: #f99746;
      }

      .cls-5 {
        fill: #e2af64;
      }

      .cls-6 {
        fill: #efcdaf;
      }

      .cls-7 {
        fill: #fff3e9;
      }

      .cls-8 {
        fill: #cca283;
      }

      .cls-9 {
        fill: #a4c9ff;
      }

      .cls-10 {
        fill: #6e9e63;
      }

      .cls-11 {
        fill: #ffe7d7;
      }

      .cls-12 {
        fill: #f7c274;
      }

      .cls-13 {
        opacity: .6;
      }

      .cls-13, .cls-14, .cls-15 {
        fill: #f8fcff;
      }

      .cls-16 {
        fill: #dceaff;
      }

      .cls-17 {
        fill: #ffcf83;
      }

      .cls-14 {
        opacity: .5;
      }

      .cls-18 {
        fill: #e58638;
      }

      .cls-19 {
        fill: #2c3a64;
      }

      .cls-20 {
        fill: #ed985f;
      }

      .cls-21 {
        fill: #7fa4f4;
      }

      .cls-22 {
        fill: #fff2e9;
      }

      .cls-23 {
        fill: #aec3ff;
      }

      .cls-24 {
        fill: #f9ddbf;
      }

      .cls-25 {
        fill: #365da4;
      }

      .cls-26 {
        fill: #ed7d2b;
      }

      .cls-27 {
        fill: #ffb27d;
      }

      .cls-28 {
        fill: #71a4ff;
      }

      .cls-29 {
        fill: #ed9f4a;
      }

      .cls-30 {
        fill: #233862;
      }

      .cls-31 {
        fill: #edbd77;
      }

      .cls-32 {
        fill: #2b478b;
      }
    </style>
  </defs>
  <rect class="cls-2" width="3200" height="2000"/>
  <path class="cls-14" d="m880.1,941.74s16.4-45.88,55.63-40.78c0,0,56.95-76.47,117.67-10.2,0,0,64.55-16.42,112.36,14.22,31.87,20.43,42.4,41.86,42.4,41.86l-328.06-5.1Z"/>
  <path class="cls-14" d="m642.61,781.51s19.87-55.59,67.39-49.41c0,0,68.99-92.65,142.56-12.35,0,0,78.21-19.9,136.12,17.23,38.62,24.75,51.37,50.71,51.37,50.71l-397.45-6.18Z"/>
  <path class="cls-14" d="m1308.42,733.82s26.38-48.68,89.47-43.27c0,0,91.59-81.13,189.26-10.82,0,0,103.82-17.42,180.71,15.08,51.26,21.67,68.2,44.41,68.2,44.41l-527.64-5.41Z"/>
  <path class="cls-16" d="m2901.71,1616.95c-1.88,8.02-4,16.25-6.35,24.49-2.13,8.25-4.95,16.96-8,25.67-1.42,4.23-3.07,8.48-4.47,12.71-4.95,13.43-10.59,27.31-17.43,41.68-2.13,4.71-4.24,9.65-6.6,14.37-.59,1.47-1.28,2.95-1.99,4.42-.42.88-.88,1.75-1.31,2.63h-279.99l-81.95-.22h-733.74l-103.68-.12h-.32l-109.23-.13h-565.98l-235.95-.23h-426.69s-.14-.39-.44-1.15c-.08-.23-.17-.49-.28-.79-.35-.92-.81-2.15-1.4-3.73l-.23-.46v-.23s-.23-.25-.23-.48c-.94-1.88-1.65-4.01-2.59-6.59-.48-1.19-.94-2.6-1.65-4.01v-.48l-.23-.23c-3.24-8.4-7.24-19.35-11.87-32.57-.41-1.2-.84-2.41-1.28-3.63-3.47-9.99-7.28-21.18-11.34-33.5-9.65-29.9-20.73-66.4-31.55-107.61-4.24-16.25-8.48-33.2-12.49-50.87-2.36-10.2-4.73-20.82-7-31.54-.66-3.14-1.3-6.29-1.95-9.43-4.16-20.08-8.08-40.77-11.61-61.91-4.65-27.76-8.65-56.3-11.69-85.27-1.51-14.22-2.78-28.55-3.8-42.95-.03-.37-.06-.76-.08-1.13-.04-.39-.06-.77-.09-1.16-1.39-20.29-2.27-40.72-2.53-61.13-.21-16.43-.03-32.87.61-49.26.46-11.07,1.17-22.14,1.88-33.21,1.88-23.55,4.7-47.1,8.71-69.94,2.59-15.54,5.88-31.09,9.65-46.16,9.18-36.97,21.67-72.29,38.14-105.73,5.89-11.54,12.01-22.84,18.84-33.91,15.3-25.2,30.84-48.75,46.63-70.88h.23c8.24-11.77,16.48-22.84,24.72-33.45,30.84-40.02,62.16-74.41,93.73-104.08,387.35-362.4,831.47-12.71,1106.29-255.96,268.67-237.6,771.43-241.13,996.3-21.9,4.24,4.24,8.71,8.48,12.95,13.19,36.41,38.64,64.5,83.77,81.74,135.31,13.29,39.69,20.15,83.17,19.41,130.42-.08,4.96-.23,9.98-.48,15.03-1.04,21.55-3.62,43.85-7.88,66.89-2.8,15.26-6.33,30.84-10.62,46.77-10.36,38.15-24.95,77.95-44.26,120.1-1.89,4-3.78,8-5.66,12.01-61.45,128.57-10.83,205.57,66.65,275.98,47.79,43.57,105.5,84.54,153.53,133.52,6.35,6.59,12.48,13.18,18.6,20.02,2.35,2.72,4.65,5.44,6.93,8.2,6.42,7.75,12.59,15.66,18.5,23.82,2.99,4.23,5.88,8.52,8.66,12.89,8.22,12.88,15.53,26.38,21.71,40.64,4.29,9.94,8.03,20.25,11.15,30.95,3.97,13.62,6.92,27.9,8.67,42.92,3.92,33.21,2.04,70.04-7.33,111.39Z"/>
  <path class="cls-17" d="m2175.91,1742.46h-851.17l-354.83-.23H328.21s-.37-.64-1.1-1.93c-.52-.92-1.21-2.15-2.11-3.73l-.35-.46v-.23s-.35-.25-.35-.48c-1.42-1.88-2.47-4.01-3.89-6.59-.72-1.19-1.42-2.6-2.49-4.01v-.48l-.35-.23c-4.86-8.4-10.89-19.35-17.85-32.57-.63-1.2-1.26-2.41-1.91-3.63-3.47-9.99-7.28-21.18-11.34-33.5-9.65-29.9-20.73-66.4-31.55-107.61-4.24-16.25-8.48-33.2-12.49-50.87-2.36-10.2-4.73-20.82-7-31.54-.66-3.14-1.3-6.29-1.95-9.43-4.16-20.08-8.08-40.77-11.61-61.91-6.93-41.39-12.41-84.51-15.49-128.22,275.62,14.2,806.91,51.59,1206.55,140.85,563.91,125.94,703.26,146.28,942.14,168.87,133.68,12.64-18.86,96.51-179.17,167.93Z"/>
  <g>
    <polygon class="cls-1" points="1693.13 1192.28 1673.15 1583.12 1693.13 1583.12 1702.12 1192.28 1693.13 1192.28"/>
    <polygon class="cls-1" points="1694.71 1156.89 1699.79 1180.96 1790.71 1073.05 1694.71 1156.89"/>
    <polygon class="cls-1" points="1727.39 1185.79 1702.86 1183.96 1781.15 1301.35 1727.39 1185.79"/>
    <polygon class="cls-1" points="1677.24 1204.97 1691.48 1184.92 1550.52 1191.31 1677.24 1204.97"/>
    <circle class="cls-1" cx="1697.05" cy="1183.96" r="10.99" transform="translate(-323.9 739.56) rotate(-22.5)"/>
  </g>
  <path class="cls-12" d="m1633.63,1527.92s-729.46-200.02-959.42-220.17c-229.96-20.15-9.67,26.94-9.67,26.94,0,0,624.27,164.23,770.31,231.94,146.05,67.71,198.78-38.71,198.78-38.71Z"/>
  <path class="cls-12" d="m1411.17,1687.52s-630.72-302.62-836.69-359.43c-205.97-56.81-13.28,22.6-13.28,22.6,0,0,540.93,252.73,662.6,338.2,121.68,85.47,187.37-1.37,187.37-1.37Z"/>
  <g>
    <polygon class="cls-1" points="1181.46 1265.46 1165.1 1585.37 1181.46 1585.37 1188.82 1265.46 1181.46 1265.46"/>
    <polygon class="cls-1" points="1182.75 1236.49 1186.91 1256.19 1261.33 1167.87 1182.75 1236.49"/>
    <polygon class="cls-1" points="1209.5 1260.14 1189.42 1258.64 1253.5 1354.73 1209.5 1260.14"/>
    <polygon class="cls-1" points="1168.45 1275.85 1180.1 1259.43 1064.73 1264.66 1168.45 1275.85"/>
    <path class="cls-1" d="m1175.67,1258.64c0-4.97,4.03-9,9-9s9,4.03,9,9-4.03,9-9,9-9-4.03-9-9Z"/>
  </g>
  <g>
    <path class="cls-3" d="m2909.04,1505.56c-1.5,19.5-3.92,39.78-7.33,60.9-.08.48-.15.94-.25,1.43-1.82,10.79-3.85,21.85-6.11,32.91-2.13,11.56-4.95,23.77-8,35.99-1.42,5.93-3.07,11.88-4.47,17.81-4.95,18.83-10.59,38.28-17.43,58.43-2.13,6.6-4.24,13.53-6.6,20.15-.59,2.06-1.28,4.14-1.99,6.2H317.31c-.35-1.29-.81-3.02-1.4-5.22l-.23-.66v-.32s-.23-.35-.23-.67c-.94-2.63-1.65-5.62-2.59-9.23-.48-1.66-.94-3.65-1.65-5.62v-.67l-.23-.32c-3.24-11.78-7.24-27.12-11.87-45.65-3.81-15.27-8.06-32.67-12.62-52.06-9.65-41.91-20.73-93.07-31.55-150.84-4.24-22.78-8.48-46.54-12.49-71.3-2.36-14.29-4.73-29.18-7-44.21,232.79,88.43,831.45,287.15,1258.99,176.02,76.83-19.96,161.6-37.84,250.55-53.82,19.87-3.58,39.97-7.06,60.22-10.44,230.62-38.59,482.76-65.33,694.04-83.77h.05c2.44-.21,4.86-.42,7.3-.63,2.38-.21,4.76-.41,7.14-.62,2.89-.24,5.77-.5,8.65-.75,5.98-.5,11.92-1.02,17.84-1.51.77-.06,1.53-.13,2.31-.19,4.54-.39,9.05-.76,13.55-1.13,16.6-1.39,32.89-2.72,48.84-4,3.58-.28,7.17-.57,10.71-.85,3.94-.32,7.86-.63,11.74-.94,5.25-.41,10.45-.81,15.62-1.22,3.2-.24,6.37-.49,9.53-.73,5.65-.44,11.25-.86,16.79-1.29,2.73-.21,5.44-.41,8.15-.62,3.72-.28,7.42-.55,11.1-.84.3-.03.59-.05.9-.06,6.02-.45,11.97-.9,17.86-1.34,1.87-.14,3.75-.27,5.61-.41.1-.01.18-.01.24-.03.09-.01.14-.01.14-.01,47.65-3.53,90.44-6.52,127.06-9.06,6.42,7.75,12.59,15.66,18.5,23.82,2.99,4.23,5.88,8.52,8.66,12.89,8.22,12.88,15.53,26.38,21.71,40.64,4.29,9.94,8.03,20.25,11.15,30.95,3.97,13.62,6.92,27.9,8.67,42.92Z"/>
    <path class="cls-10" d="m1805.2,1464.35c-60.35,33.93-190.46,120.78-270.41,275.01-.57,1.07-1.12,2.15-1.68,3.23l-60.78-3.23-19.01-1.01c1.83-5.15,86.61-133.68,291.67-263.56,19.87-3.58,39.97-7.06,60.22-10.44Z"/>
    <path class="cls-10" d="m1580.79,1738.57c1.93-5.42,100.53-155.4,344.12-291.12l19.17,14.99s-187.37,82.34-287.89,280.16l-75.4-4.03Z"/>
    <path class="cls-10" d="m1756.89,1738.57c1.93-5.42,100.53-155.4,344.12-291.12l19.17,14.99s-187.36,82.34-287.89,280.16l-75.4-4.03Z"/>
    <path class="cls-10" d="m2713.3,1363.41s-341.3,34.72-554.43,254.29l-134.47-38.54c3.71-5.42,149.71-119.17,474.84-198.57h.05c77.93-6.79,150.31-12.47,214.01-17.18h0Z"/>
    <path class="cls-10" d="m2889.22,1431.69c-153.31,37.02-398.75,121.84-582.27,307.67h-117.5l-86.34-24.99c5.48-8.47,239.48-204.25,764.41-323.32,8.22,12.88,15.53,26.38,21.71,40.64Z"/>
  </g>
  <g>
    <path class="cls-10" d="m1664.96,1735.86l1.75-.45c-.7-3.13-2.45-66.05,17.29-102.74l-1.59-.86c-20,37.18-18.12,101.46-17.45,104.04Z"/>
    <g>
      <g>
        <path class="cls-17" d="m1687.38,1598.97s6.21,13.03,2.43,18.87c-3.78,5.84-6.91-10.83-2.43-18.87Z"/>
        <path class="cls-17" d="m1691.25,1653.96s-6.21-13.04-2.43-18.88c3.78-5.84,6.91,10.83,2.43,18.88Z"/>
      </g>
      <g>
        <path class="cls-17" d="m1674.94,1602.95s11.52,8.71,10.85,15.64c-.67,6.93-11.12-6.43-10.85-15.64Z"/>
        <path class="cls-17" d="m1703.7,1649.98s-11.52-8.71-10.85-15.64c.67-6.93,11.12,6.43,10.85,15.64Z"/>
      </g>
      <g>
        <path class="cls-17" d="m1665.83,1612.32s14.22,2.53,16.76,9.01c2.55,6.48-12.82-.69-16.76-9.01Z"/>
        <path class="cls-17" d="m1712.8,1641.18s-14.22-2.53-16.76-9.01c-2.55-6.48,12.82.69,16.76,9.01Z"/>
      </g>
      <g>
        <path class="cls-17" d="m1662.89,1635.18s11.39-8.88,17.91-6.44c6.52,2.44-9.08,9.08-17.91,6.44Z"/>
        <path class="cls-17" d="m1716.82,1624.15s-12.74,6.79-18.75,3.27c-6-3.52,10.51-7.38,18.75-3.27Z"/>
      </g>
      <g>
        <path class="cls-17" d="m1669.17,1645.1s7.08-12.59,14.03-12.85c6.95-.27-4.88,11.88-14.03,12.85Z"/>
        <path class="cls-17" d="m1711.9,1610.27s-7.08,12.58-14.04,12.85c-6.95.27,4.88-11.88,14.04-12.85Z"/>
      </g>
      <g>
        <path class="cls-17" d="m1678.49,1652.52s.93-14.41,7.08-17.66c6.15-3.25.75,12.82-7.08,17.66Z"/>
        <path class="cls-17" d="m1701.92,1602.62s-.93,14.41-7.08,17.66c-6.15,3.25-.75-12.82,7.08-17.66Z"/>
      </g>
      <path class="cls-17" d="m1662.16,1625.88s13.49-5.15,19.01-.91c5.52,4.24-11.34,6.02-19.01.91Z"/>
      <path class="cls-25" d="m1699.37,1626.75c0-5.55-4.5-10.05-10.05-10.05s-10.05,4.5-10.05,10.05,4.5,10.05,10.05,10.05,10.05-4.5,10.05-10.05Z"/>
    </g>
    <path class="cls-10" d="m1668.42,1677.92s8.74-8.9,20.81-9.5c12.06-.6,15.77,0,15.77,0,0,0-7.42,7.84-16.27,9.5-8.85,1.66-20.31,0-20.31,0Z"/>
    <path class="cls-10" d="m1670.23,1669.28c-1.53-1.33-2.67-12.17-12.02-14.89-9.35-2.71-15.98-3.24-15.98-3.24,0,0,8.1,14.09,14,16.2,5.9,2.11,14,1.92,14,1.92Z"/>
    <path class="cls-10" d="m1617.71,1735.86l2.06-.53c-.83-3.68-2.89-77.73,20.34-120.91l-1.88-1.01c-23.54,43.75-21.33,119.4-20.53,122.44Z"/>
    <g>
      <g>
        <path class="cls-17" d="m1644.1,1574.76s7.31,15.34,2.86,22.21c-4.45,6.87-8.13-12.74-2.86-22.21Z"/>
        <path class="cls-17" d="m1648.66,1639.47s-7.31-15.34-2.86-22.21c4.45-6.87,8.13,12.74,2.86,22.21Z"/>
      </g>
      <g>
        <path class="cls-17" d="m1629.46,1579.44s13.56,10.25,12.77,18.4c-.79,8.15-13.08-7.57-12.77-18.4Z"/>
        <path class="cls-17" d="m1663.3,1634.79s-13.55-10.25-12.77-18.4c.79-8.15,13.08,7.57,12.77,18.4Z"/>
      </g>
      <g>
        <path class="cls-17" d="m1618.74,1590.48s16.73,2.98,19.73,10.6c3,7.62-15.09-.81-19.73-10.6Z"/>
        <path class="cls-17" d="m1674.02,1624.43s-16.73-2.98-19.73-10.6c-3-7.62,15.09.81,19.73,10.6Z"/>
      </g>
      <g>
        <path class="cls-17" d="m1615.27,1617.37s13.4-10.45,21.07-7.58c7.67,2.87-10.69,10.68-21.07,7.58Z"/>
        <path class="cls-17" d="m1678.74,1604.4s-15,7.99-22.06,3.85c-7.06-4.14,12.37-8.69,22.06-3.85Z"/>
      </g>
      <g>
        <path class="cls-17" d="m1622.66,1629.05s8.33-14.81,16.52-15.12c8.18-.31-5.74,13.98-16.52,15.12Z"/>
        <path class="cls-17" d="m1672.95,1588.06s-8.33,14.81-16.52,15.12c-8.18.32,5.74-13.98,16.52-15.12Z"/>
      </g>
      <g>
        <path class="cls-17" d="m1633.63,1637.78s1.09-16.96,8.34-20.79c7.24-3.83.88,15.09-8.34,20.79Z"/>
        <path class="cls-17" d="m1661.21,1579.05s-1.09,16.96-8.33,20.79c-7.24,3.83-.88-15.09,8.33-20.79Z"/>
      </g>
      <path class="cls-17" d="m1614.41,1606.43s15.88-6.06,22.37-1.08c6.49,4.99-13.35,7.08-22.37,1.08Z"/>
      <path class="cls-25" d="m1658.21,1607.46c0-6.53-5.3-11.83-11.83-11.83s-11.83,5.3-11.83,11.83,5.3,11.83,11.83,11.83,11.83-5.29,11.83-11.83Z"/>
    </g>
    <path class="cls-10" d="m1618.47,1697.53s10.29-10.47,24.48-11.18c14.2-.71,18.56,0,18.56,0,0,0-8.73,9.23-19.15,11.18-10.41,1.95-23.9,0-23.9,0Z"/>
    <path class="cls-10" d="m1620.6,1687.37c-1.8-1.56-3.15-14.33-14.15-17.52-11-3.19-18.81-3.81-18.81-3.81,0,0,9.53,16.58,16.48,19.07,6.94,2.48,16.48,2.26,16.48,2.26Z"/>
    <path class="cls-10" d="m1674.71,1735.86l1.24-.32c-.5-2.21-1.73-46.64,12.21-72.55l-1.12-.61c-14.12,26.25-12.8,71.64-12.32,73.47Z"/>
    <g>
      <g>
        <path class="cls-17" d="m1690.54,1639.2s4.39,9.2,1.71,13.33c-2.67,4.12-4.88-7.64-1.71-13.33Z"/>
        <path class="cls-17" d="m1693.28,1678.03s-4.39-9.2-1.71-13.33c2.67-4.12,4.88,7.65,1.71,13.33Z"/>
      </g>
      <g>
        <path class="cls-17" d="m1681.75,1642.01s8.13,6.15,7.66,11.04c-.47,4.89-7.85-4.54-7.66-11.04Z"/>
        <path class="cls-17" d="m1702.06,1675.22s-8.13-6.15-7.66-11.04c.47-4.89,7.85,4.54,7.66,11.04Z"/>
      </g>
      <g>
        <path class="cls-17" d="m1675.32,1648.63s10.04,1.79,11.84,6.36c1.8,4.57-9.05-.48-11.84-6.36Z"/>
        <path class="cls-17" d="m1708.49,1669s-10.04-1.79-11.84-6.36c-1.8-4.57,9.05.48,11.84,6.36Z"/>
      </g>
      <g>
        <path class="cls-17" d="m1673.25,1664.76s8.04-6.27,12.64-4.55c4.6,1.72-6.41,6.41-12.64,4.55Z"/>
        <path class="cls-17" d="m1711.33,1656.98s-9,4.8-13.24,2.31c-4.24-2.48,7.42-5.21,13.24-2.31Z"/>
      </g>
      <g>
        <path class="cls-17" d="m1677.68,1671.77s5-8.89,9.91-9.08c4.91-.19-3.44,8.39-9.91,9.08Z"/>
        <path class="cls-17" d="m1707.85,1647.18s-5,8.89-9.91,9.08c-4.91.19,3.44-8.39,9.91-9.08Z"/>
      </g>
      <g>
        <path class="cls-17" d="m1684.26,1677.01s.66-10.17,5-12.47c4.34-2.3.53,9.05-5,12.47Z"/>
        <path class="cls-17" d="m1700.8,1641.77s-.66,10.17-5,12.47c-4.34,2.3-.53-9.05,5-12.47Z"/>
      </g>
      <path class="cls-17" d="m1672.73,1658.2s9.53-3.64,13.42-.64c3.9,2.99-8.01,4.25-13.42.64Z"/>
      <path class="cls-25" d="m1699.01,1658.82c0-3.92-3.18-7.1-7.1-7.1s-7.1,3.18-7.1,7.1,3.18,7.1,7.1,7.1,7.1-3.18,7.1-7.1Z"/>
    </g>
    <path class="cls-10" d="m1675.16,1712.86s6.17-6.28,14.69-6.71c8.52-.43,11.13,0,11.13,0,0,0-5.24,5.54-11.49,6.71-6.25,1.17-14.34,0-14.34,0Z"/>
    <path class="cls-10" d="m1676.44,1706.77c-1.08-.94-1.89-8.6-8.49-10.51s-11.29-2.29-11.29-2.29c0,0,5.72,9.95,9.89,11.44,4.17,1.49,9.89,1.36,9.89,1.36Z"/>
    <path class="cls-10" d="m1743.44,1735.86l2.06-.53c-.83-3.68-2.89-77.73,20.35-120.91l-1.88-1.01c-23.54,43.75-21.33,119.4-20.53,122.44Z"/>
    <g>
      <g>
        <path class="cls-17" d="m1769.83,1574.76s7.31,15.34,2.86,22.21c-4.45,6.87-8.13-12.74-2.86-22.21Z"/>
        <path class="cls-17" d="m1774.39,1639.47s-7.31-15.34-2.86-22.21c4.45-6.87,8.13,12.74,2.86,22.21Z"/>
      </g>
      <g>
        <path class="cls-17" d="m1755.19,1579.44s13.55,10.25,12.77,18.4c-.79,8.15-13.08-7.57-12.77-18.4Z"/>
        <path class="cls-17" d="m1789.04,1634.79s-13.55-10.25-12.77-18.4c.79-8.15,13.08,7.57,12.77,18.4Z"/>
      </g>
      <g>
        <path class="cls-17" d="m1744.47,1590.48s16.73,2.98,19.73,10.6c3,7.62-15.09-.81-19.73-10.6Z"/>
        <path class="cls-17" d="m1799.75,1624.43s-16.73-2.98-19.73-10.6c-3-7.62,15.09.81,19.73,10.6Z"/>
      </g>
      <g>
        <path class="cls-17" d="m1741.01,1617.37s13.4-10.45,21.07-7.58c7.67,2.87-10.69,10.68-21.07,7.58Z"/>
        <path class="cls-17" d="m1804.48,1604.4s-15,7.99-22.06,3.85c-7.06-4.14,12.36-8.69,22.06-3.85Z"/>
      </g>
      <g>
        <path class="cls-17" d="m1748.4,1629.05s8.33-14.81,16.52-15.12c8.18-.31-5.74,13.98-16.52,15.12Z"/>
        <path class="cls-17" d="m1798.69,1588.06s-8.33,14.81-16.52,15.12c-8.18.32,5.74-13.98,16.52-15.12Z"/>
      </g>
      <g>
        <path class="cls-17" d="m1759.37,1637.78s1.09-16.96,8.33-20.79c7.24-3.83.88,15.09-8.33,20.79Z"/>
        <path class="cls-17" d="m1786.94,1579.05s-1.1,16.96-8.33,20.79c-7.24,3.83-.88-15.09,8.33-20.79Z"/>
      </g>
      <path class="cls-17" d="m1740.15,1606.43s15.88-6.06,22.37-1.08c6.5,4.99-13.35,7.08-22.37,1.08Z"/>
      <circle class="cls-25" cx="1772.11" cy="1607.46" r="11.83"/>
    </g>
    <path class="cls-10" d="m1747.52,1667.67s10.29-10.47,24.48-11.18c14.19-.71,18.56,0,18.56,0,0,0-8.73,9.23-19.15,11.18-10.41,1.95-23.9,0-23.9,0Z"/>
    <path class="cls-10" d="m1749.65,1657.51c-1.79-1.56-3.15-14.33-14.15-17.52-11-3.19-18.81-3.81-18.81-3.81,0,0,9.53,16.58,16.48,19.07,6.94,2.48,16.48,2.26,16.48,2.26Z"/>
    <path class="cls-10" d="m1705.37,1735.86l2.06-.57c-.83-3.98-2.89-84.1,20.34-130.81l-1.88-1.09c-23.54,47.34-21.33,129.18-20.53,132.47Z"/>
    <g>
      <g>
        <path class="cls-17" d="m1731.76,1561.56s7.31,16.6,2.86,24.03c-4.45,7.44-8.13-13.78-2.86-24.03Z"/>
        <path class="cls-17" d="m1736.32,1631.58s-7.31-16.6-2.86-24.03c4.45-7.43,8.13,13.79,2.86,24.03Z"/>
      </g>
      <g>
        <path class="cls-17" d="m1717.12,1566.63s13.55,11.09,12.77,19.91c-.79,8.82-13.08-8.19-12.77-19.91Z"/>
        <path class="cls-17" d="m1750.96,1626.51s-13.55-11.09-12.77-19.91c.79-8.82,13.08,8.19,12.77,19.91Z"/>
      </g>
      <g>
        <path class="cls-17" d="m1706.4,1578.57s16.73,3.23,19.73,11.47-15.09-.87-19.73-11.47Z"/>
        <path class="cls-17" d="m1761.68,1615.31s-16.73-3.23-19.73-11.47c-3-8.25,15.09.87,19.73,11.47Z"/>
      </g>
      <g>
        <path class="cls-17" d="m1702.93,1607.67s13.4-11.3,21.07-8.2c7.67,3.1-10.69,11.56-21.07,8.2Z"/>
        <path class="cls-17" d="m1766.4,1593.63s-15,8.65-22.06,4.17c-7.06-4.48,12.37-9.4,22.06-4.17Z"/>
      </g>
      <g>
        <path class="cls-17" d="m1710.32,1620.3s8.33-16.02,16.52-16.36c8.18-.34-5.74,15.12-16.52,16.36Z"/>
        <path class="cls-17" d="m1760.61,1575.96s-8.33,16.02-16.52,16.36c-8.18.34,5.74-15.13,16.52-16.36Z"/>
      </g>
      <g>
        <path class="cls-17" d="m1721.29,1629.74s1.09-18.35,8.33-22.49c7.24-4.14.88,16.32-8.33,22.49Z"/>
        <path class="cls-17" d="m1748.87,1566.21s-1.1,18.35-8.33,22.49c-7.24,4.14-.88-16.32,8.33-22.49Z"/>
      </g>
      <path class="cls-17" d="m1702.07,1595.83s15.88-6.56,22.37-1.16c6.5,5.4-13.35,7.66-22.37,1.16Z"/>
      <path class="cls-25" d="m1745.87,1596.94c0-7.07-5.3-12.8-11.83-12.8s-11.83,5.73-11.83,12.8,5.3,12.8,11.83,12.8,11.83-5.73,11.83-12.8Z"/>
    </g>
    <path class="cls-10" d="m1706.13,1694.39s10.29-11.33,24.48-12.09c14.2-.77,18.56,0,18.56,0,0,0-8.73,9.98-19.15,12.09-10.41,2.11-23.9,0-23.9,0Z"/>
    <path class="cls-10" d="m1708.26,1683.4c-1.79-1.69-3.15-15.5-14.15-18.96-11-3.46-18.81-4.12-18.81-4.12,0,0,9.53,17.94,16.48,20.63,6.94,2.69,16.48,2.45,16.48,2.45Z"/>
    <path class="cls-10" d="m1754.92,1735.86l1.46-.37c-.58-2.6-2.04-54.89,14.37-85.38l-1.32-.71c-16.62,30.89-15.06,84.31-14.5,86.46Z"/>
    <g>
      <g>
        <path class="cls-17" d="m1773.55,1622.1s5.16,10.83,2.02,15.68c-3.15,4.85-5.74-9-2.02-15.68Z"/>
        <path class="cls-17" d="m1776.77,1667.8s-5.16-10.83-2.02-15.68c3.15-4.85,5.74,9,2.02,15.68Z"/>
      </g>
      <g>
        <path class="cls-17" d="m1763.21,1625.41s9.57,7.24,9.01,12.99c-.56,5.76-9.24-5.34-9.01-12.99Z"/>
        <path class="cls-17" d="m1787.11,1664.49s-9.57-7.24-9.01-12.99c.56-5.75,9.24,5.34,9.01,12.99Z"/>
      </g>
      <g>
        <path class="cls-17" d="m1755.65,1633.2s11.81,2.11,13.93,7.49c2.12,5.38-10.66-.57-13.93-7.49Z"/>
        <path class="cls-17" d="m1794.68,1657.18s-11.81-2.11-13.93-7.49c-2.12-5.38,10.66.57,13.93,7.49Z"/>
      </g>
      <g>
        <path class="cls-17" d="m1753.2,1652.19s9.46-7.38,14.88-5.35c5.42,2.03-7.55,7.54-14.88,5.35Z"/>
        <path class="cls-17" d="m1798.02,1643.03s-10.59,5.64-15.58,2.72c-4.99-2.92,8.73-6.14,15.58-2.72Z"/>
      </g>
      <g>
        <path class="cls-17" d="m1758.42,1660.44s5.88-10.46,11.66-10.68c5.78-.22-4.05,9.87-11.66,10.68Z"/>
        <path class="cls-17" d="m1793.93,1631.5s-5.88,10.46-11.66,10.68c-5.78.22,4.05-9.87,11.66-10.68Z"/>
      </g>
      <g>
        <path class="cls-17" d="m1766.16,1666.6s.77-11.97,5.88-14.68c5.11-2.7.62,10.65-5.88,14.68Z"/>
        <path class="cls-17" d="m1785.63,1625.14s-.77,11.97-5.88,14.68c-5.11,2.7-.62-10.65,5.88-14.68Z"/>
      </g>
      <path class="cls-17" d="m1752.59,1644.47s11.21-4.28,15.8-.76c4.59,3.52-9.43,5-15.8.76Z"/>
      <path class="cls-25" d="m1783.52,1645.19c0-4.61-3.74-8.35-8.35-8.35s-8.35,3.74-8.35,8.35,3.74,8.35,8.35,8.35,8.35-3.74,8.35-8.35Z"/>
    </g>
    <path class="cls-10" d="m1755.46,1708.8s7.27-7.39,17.29-7.89c10.02-.5,13.1,0,13.1,0,0,0-6.17,6.51-13.52,7.89-7.35,1.38-16.87,0-16.87,0Z"/>
    <path class="cls-10" d="m1756.96,1701.62c-1.27-1.1-2.22-10.12-9.99-12.37-7.77-2.25-13.28-2.69-13.28-2.69,0,0,6.73,11.71,11.64,13.46,4.9,1.75,11.63,1.6,11.63,1.6Z"/>
    <path class="cls-10" d="m1808.18,1735.86l1.05-.27c-.42-1.87-1.47-39.52,10.34-61.47l-.95-.51c-11.97,22.24-10.84,60.7-10.44,62.25Z"/>
    <g>
      <g>
        <path class="cls-17" d="m1821.6,1653.96s3.72,7.8,1.45,11.29c-2.26,3.49-4.13-6.48-1.45-11.29Z"/>
        <path class="cls-17" d="m1823.91,1686.86s-3.72-7.8-1.45-11.29c2.26-3.49,4.13,6.48,1.45,11.29Z"/>
      </g>
      <g>
        <path class="cls-17" d="m1814.15,1656.34s6.89,5.21,6.49,9.36c-.4,4.14-6.65-3.85-6.49-9.36Z"/>
        <path class="cls-17" d="m1831.36,1684.48s-6.89-5.21-6.49-9.35c.4-4.14,6.65,3.85,6.49,9.35Z"/>
      </g>
      <g>
        <path class="cls-17" d="m1808.7,1661.95s8.51,1.52,10.03,5.39c1.52,3.88-7.67-.41-10.03-5.39Z"/>
        <path class="cls-17" d="m1836.81,1679.21s-8.5-1.52-10.03-5.39c-1.52-3.87,7.67.41,10.03,5.39Z"/>
      </g>
      <g>
        <path class="cls-17" d="m1806.94,1675.62s6.81-5.31,10.71-3.85c3.9,1.46-5.43,5.43-10.71,3.85Z"/>
        <path class="cls-17" d="m1839.21,1669.03s-7.62,4.06-11.22,1.96,6.29-4.42,11.22-1.96Z"/>
      </g>
      <g>
        <path class="cls-17" d="m1810.7,1681.56s4.24-7.53,8.4-7.69c4.16-.16-2.92,7.11-8.4,7.69Z"/>
        <path class="cls-17" d="m1836.26,1660.72s-4.24,7.53-8.4,7.69c-4.16.16,2.92-7.11,8.4-7.69Z"/>
      </g>
      <g>
        <path class="cls-17" d="m1816.27,1686s.56-8.62,4.24-10.57c3.68-1.95.45,7.67-4.24,10.57Z"/>
        <path class="cls-17" d="m1830.29,1656.14s-.56,8.62-4.24,10.57c-3.68,1.95-.45-7.67,4.24-10.57Z"/>
      </g>
      <path class="cls-17" d="m1806.5,1670.06s8.07-3.08,11.37-.55c3.3,2.54-6.79,3.6-11.37.55Z"/>
      <circle class="cls-25" cx="1822.75" cy="1670.58" r="6.01"/>
    </g>
    <path class="cls-10" d="m1810.25,1701.19s5.23-5.32,12.45-5.68c7.22-.36,9.43,0,9.43,0,0,0-4.44,4.69-9.73,5.68-5.29.99-12.15,0-12.15,0Z"/>
    <path class="cls-10" d="m1811.33,1696.03c-.91-.8-1.6-7.28-7.19-8.91-5.59-1.62-9.56-1.94-9.56-1.94,0,0,4.85,8.43,8.38,9.69s8.38,1.15,8.38,1.15Z"/>
    <path class="cls-10" d="m1779.91,1735.86l1.23-.32c-.5-2.2-1.73-46.5,12.17-72.34l-1.12-.6c-14.08,26.18-12.76,71.44-12.29,73.26Z"/>
    <g>
      <g>
        <path class="cls-17" d="m1795.7,1639.47s4.38,9.18,1.71,13.29c-2.66,4.11-4.86-7.62-1.71-13.29Z"/>
        <path class="cls-17" d="m1798.43,1678.19s-4.38-9.18-1.71-13.29c2.66-4.11,4.86,7.62,1.71,13.29Z"/>
      </g>
      <g>
        <path class="cls-17" d="m1786.94,1642.28s8.11,6.13,7.64,11.01c-.47,4.88-7.83-4.53-7.64-11.01Z"/>
        <path class="cls-17" d="m1807.19,1675.39s-8.11-6.13-7.64-11.01c.47-4.88,7.83,4.53,7.64,11.01Z"/>
      </g>
      <g>
        <path class="cls-17" d="m1780.53,1648.88s10.01,1.78,11.8,6.34c1.79,4.56-9.03-.48-11.8-6.34Z"/>
        <path class="cls-17" d="m1813.6,1669.19s-10.01-1.78-11.8-6.34c-1.79-4.56,9.03.48,11.8,6.34Z"/>
      </g>
      <g>
        <path class="cls-17" d="m1778.45,1664.97s8.02-6.25,12.61-4.54-6.4,6.39-12.61,4.54Z"/>
        <path class="cls-17" d="m1816.43,1657.21s-8.97,4.78-13.2,2.3c-4.23-2.48,7.4-5.2,13.2-2.3Z"/>
      </g>
      <g>
        <path class="cls-17" d="m1782.88,1671.96s4.99-8.86,9.88-9.05c4.9-.19-3.43,8.36-9.88,9.05Z"/>
        <path class="cls-17" d="m1812.96,1647.43s-4.99,8.86-9.88,9.05c-4.9.19,3.43-8.36,9.88-9.05Z"/>
      </g>
      <g>
        <path class="cls-17" d="m1789.44,1677.18s.66-10.15,4.99-12.44c4.33-2.29.53,9.03-4.99,12.44Z"/>
        <path class="cls-17" d="m1805.94,1642.04s-.66,10.15-4.99,12.44c-4.33,2.29-.53-9.03,4.99-12.44Z"/>
      </g>
      <path class="cls-17" d="m1777.94,1658.42s9.5-3.63,13.38-.64c3.89,2.98-7.99,4.24-13.38.64Z"/>
      <path class="cls-25" d="m1804.14,1659.04c0-3.91-3.17-7.08-7.08-7.08s-7.08,3.17-7.08,7.08,3.17,7.08,7.08,7.08,7.08-3.17,7.08-7.08Z"/>
    </g>
    <path class="cls-10" d="m1780.37,1712.93s6.16-6.26,14.65-6.69c8.49-.42,11.1,0,11.1,0,0,0-5.22,5.52-11.46,6.69-6.23,1.17-14.3,0-14.3,0Z"/>
    <path class="cls-10" d="m1781.64,1706.85c-1.07-.94-1.88-8.57-8.46-10.48-6.58-1.91-11.25-2.28-11.25-2.28,0,0,5.71,9.92,9.86,11.41,4.15,1.49,9.86,1.35,9.86,1.35Z"/>
    <path class="cls-10" d="m1814.01,1735.86l.74-.19c-.3-1.32-1.04-27.9,7.3-43.4l-.67-.36c-8.45,15.71-7.66,42.86-7.37,43.96Z"/>
    <g>
      <g>
        <path class="cls-17" d="m1823.49,1678.03s2.62,5.51,1.03,7.97c-1.6,2.47-2.92-4.57-1.03-7.97Z"/>
        <path class="cls-17" d="m1825.12,1701.26s-2.62-5.51-1.03-7.97c1.6-2.47,2.92,4.57,1.03,7.97Z"/>
      </g>
      <g>
        <path class="cls-17" d="m1818.23,1679.71s4.87,3.68,4.58,6.61c-.28,2.93-4.7-2.72-4.58-6.61Z"/>
        <path class="cls-17" d="m1830.38,1699.58s-4.87-3.68-4.58-6.61c.28-2.93,4.7,2.72,4.58,6.61Z"/>
      </g>
      <g>
        <path class="cls-17" d="m1814.38,1683.67s6.01,1.07,7.08,3.81c1.08,2.74-5.42-.29-7.08-3.81Z"/>
        <path class="cls-17" d="m1834.23,1695.86s-6.01-1.07-7.08-3.81c-1.08-2.74,5.42.29,7.08,3.81Z"/>
      </g>
      <g>
        <path class="cls-17" d="m1813.14,1693.32s4.81-3.75,7.56-2.72-3.84,3.84-7.56,2.72Z"/>
        <path class="cls-17" d="m1835.92,1688.67s-5.38,2.87-7.92,1.38c-2.54-1.49,4.44-3.12,7.92-1.38Z"/>
      </g>
      <g>
        <path class="cls-17" d="m1815.79,1697.52s2.99-5.32,5.93-5.43c2.94-.11-2.06,5.02-5.93,5.43Z"/>
        <path class="cls-17" d="m1833.84,1682.8s-2.99,5.32-5.93,5.43c-2.94.11,2.06-5.02,5.93-5.43Z"/>
      </g>
      <g>
        <path class="cls-17" d="m1819.73,1700.65s.39-6.09,2.99-7.46c2.6-1.38.32,5.42-2.99,7.46Z"/>
        <path class="cls-17" d="m1829.63,1679.57s-.39,6.09-2.99,7.46c-2.6,1.37-.32-5.42,2.99-7.46Z"/>
      </g>
      <path class="cls-17" d="m1812.83,1689.4s5.7-2.18,8.03-.39c2.33,1.79-4.79,2.54-8.03.39Z"/>
      <path class="cls-25" d="m1828.55,1689.77c0-2.35-1.9-4.25-4.25-4.25s-4.25,1.9-4.25,4.25,1.9,4.25,4.25,4.25,4.25-1.9,4.25-4.25Z"/>
    </g>
    <path class="cls-10" d="m1814.29,1722.1s3.69-3.76,8.79-4.01c5.1-.25,6.66,0,6.66,0,0,0-3.14,3.31-6.87,4.01-3.74.7-8.58,0-8.58,0Z"/>
    <path class="cls-10" d="m1815.05,1718.46c-.64-.56-1.13-5.14-5.08-6.29-3.95-1.15-6.75-1.37-6.75-1.37,0,0,3.42,5.95,5.91,6.84,2.49.89,5.92.81,5.92.81Z"/>
    <path class="cls-10" d="m1855.14,1735.86l1.23-.32c-.5-2.2-1.73-46.5,12.17-72.34l-1.12-.6c-14.08,26.18-12.76,71.44-12.28,73.26Z"/>
    <g>
      <g>
        <path class="cls-17" d="m1870.93,1639.47s4.38,9.18,1.71,13.29c-2.66,4.11-4.86-7.62-1.71-13.29Z"/>
        <path class="cls-17" d="m1873.66,1678.19s-4.38-9.18-1.71-13.29c2.66-4.11,4.86,7.62,1.71,13.29Z"/>
      </g>
      <g>
        <path class="cls-17" d="m1862.17,1642.28s8.11,6.13,7.64,11.01c-.47,4.88-7.83-4.53-7.64-11.01Z"/>
        <path class="cls-17" d="m1882.42,1675.39s-8.11-6.13-7.64-11.01c.47-4.88,7.83,4.53,7.64,11.01Z"/>
      </g>
      <g>
        <path class="cls-17" d="m1855.75,1648.88s10.01,1.78,11.8,6.34c1.79,4.56-9.03-.48-11.8-6.34Z"/>
        <path class="cls-17" d="m1888.83,1669.19s-10.01-1.78-11.8-6.34c-1.79-4.56,9.03.48,11.8,6.34Z"/>
      </g>
      <g>
        <path class="cls-17" d="m1853.68,1664.97s8.02-6.25,12.61-4.54c4.59,1.72-6.39,6.39-12.61,4.54Z"/>
        <path class="cls-17" d="m1891.65,1657.21s-8.97,4.78-13.2,2.3c-4.23-2.48,7.4-5.2,13.2-2.3Z"/>
      </g>
      <g>
        <path class="cls-17" d="m1858.1,1671.96s4.99-8.86,9.88-9.05c4.9-.19-3.43,8.36-9.88,9.05Z"/>
        <path class="cls-17" d="m1888.19,1647.43s-4.99,8.86-9.88,9.05c-4.9.19,3.43-8.36,9.88-9.05Z"/>
      </g>
      <g>
        <path class="cls-17" d="m1864.67,1677.18s.66-10.15,4.99-12.44c4.33-2.29.53,9.03-4.99,12.44Z"/>
        <path class="cls-17" d="m1881.16,1642.04s-.66,10.15-4.99,12.44c-4.33,2.29-.53-9.03,4.99-12.44Z"/>
      </g>
      <path class="cls-17" d="m1853.17,1658.42s9.5-3.63,13.38-.64c3.89,2.98-7.99,4.24-13.38.64Z"/>
      <path class="cls-25" d="m1879.37,1659.04c0-3.91-3.17-7.08-7.08-7.08s-7.08,3.17-7.08,7.08,3.17,7.08,7.08,7.08,7.08-3.17,7.08-7.08Z"/>
    </g>
    <path class="cls-10" d="m1857.58,1695.06s6.16-6.26,14.65-6.69,11.1,0,11.1,0c0,0-5.22,5.52-11.45,6.69-6.23,1.17-14.3,0-14.3,0Z"/>
    <path class="cls-10" d="m1858.85,1688.98c-1.07-.94-1.88-8.57-8.46-10.48-6.58-1.91-11.25-2.28-11.25-2.28,0,0,5.7,9.92,9.86,11.41,4.15,1.49,9.86,1.35,9.86,1.35Z"/>
    <path class="cls-10" d="m1832.36,1735.86l1.23-.34c-.5-2.38-1.73-50.31,12.17-78.26l-1.12-.65c-14.08,28.32-12.76,77.29-12.28,79.26Z"/>
    <g>
      <g>
        <path class="cls-17" d="m1848.15,1631.58s4.38,9.93,1.71,14.38c-2.66,4.45-4.86-8.25-1.71-14.38Z"/>
        <path class="cls-17" d="m1850.88,1673.47s-4.38-9.93-1.71-14.38c2.67-4.45,4.86,8.25,1.71,14.38Z"/>
      </g>
      <g>
        <path class="cls-17" d="m1839.39,1634.61s8.11,6.63,7.64,11.91c-.47,5.28-7.83-4.9-7.64-11.91Z"/>
        <path class="cls-17" d="m1859.64,1670.44s-8.11-6.63-7.64-11.91c.47-5.28,7.83,4.9,7.64,11.91Z"/>
      </g>
      <g>
        <path class="cls-17" d="m1832.97,1641.75s10.01,1.93,11.8,6.86c1.79,4.93-9.03-.52-11.8-6.86Z"/>
        <path class="cls-17" d="m1866.05,1663.73s-10.01-1.93-11.8-6.86c-1.79-4.93,9.03.52,11.8,6.86Z"/>
      </g>
      <g>
        <path class="cls-17" d="m1830.9,1659.16s8.02-6.76,12.61-4.91c4.59,1.86-6.4,6.92-12.61,4.91Z"/>
        <path class="cls-17" d="m1868.87,1650.76s-8.97,5.17-13.2,2.49c-4.23-2.68,7.4-5.62,13.2-2.49Z"/>
      </g>
      <g>
        <path class="cls-17" d="m1835.32,1666.72s4.99-9.59,9.88-9.79c4.9-.2-3.43,9.05-9.88,9.79Z"/>
        <path class="cls-17" d="m1865.41,1640.19s-4.99,9.59-9.88,9.79c-4.9.2,3.43-9.05,9.88-9.79Z"/>
      </g>
      <g>
        <path class="cls-17" d="m1841.88,1672.37s.66-10.98,4.99-13.46c4.33-2.48.53,9.77-4.99,13.46Z"/>
        <path class="cls-17" d="m1858.38,1634.36s-.66,10.98-4.99,13.46c-4.33,2.48-.53-9.76,4.99-13.46Z"/>
      </g>
      <path class="cls-17" d="m1830.39,1652.08s9.5-3.92,13.38-.7c3.89,3.23-7.99,4.59-13.38.7Z"/>
      <path class="cls-25" d="m1856.59,1652.74c0-4.23-3.17-7.66-7.08-7.66s-7.08,3.43-7.08,7.66,3.17,7.66,7.08,7.66,7.08-3.43,7.08-7.66Z"/>
    </g>
    <path class="cls-10" d="m1832.81,1711.05s6.16-6.78,14.65-7.24c8.49-.46,11.1,0,11.1,0,0,0-5.23,5.97-11.45,7.24-6.23,1.26-14.3,0-14.3,0Z"/>
    <path class="cls-10" d="m1834.09,1704.47c-1.07-1.01-1.88-9.27-8.46-11.34-6.58-2.07-11.25-2.46-11.25-2.46,0,0,5.7,10.73,9.86,12.34,4.15,1.61,9.86,1.46,9.86,1.46Z"/>
    <path class="cls-10" d="m1862,1735.86l.87-.22c-.35-1.55-1.22-32.84,8.59-51.08l-.79-.43c-9.95,18.48-9.01,50.44-8.67,51.73Z"/>
    <g>
      <g>
        <path class="cls-17" d="m1873.15,1667.8s3.09,6.48,1.21,9.38c-1.88,2.9-3.43-5.38-1.21-9.38Z"/>
        <path class="cls-17" d="m1875.08,1695.14s-3.09-6.48-1.21-9.38c1.88-2.9,3.43,5.38,1.21,9.38Z"/>
      </g>
      <g>
        <path class="cls-17" d="m1866.97,1669.78s5.73,4.33,5.39,7.77c-.33,3.44-5.53-3.2-5.39-7.77Z"/>
        <path class="cls-17" d="m1881.27,1693.16s-5.73-4.33-5.39-7.77c.33-3.44,5.53,3.2,5.39,7.77Z"/>
      </g>
      <g>
        <path class="cls-17" d="m1862.44,1674.44s7.07,1.26,8.33,4.48c1.27,3.22-6.38-.34-8.33-4.48Z"/>
        <path class="cls-17" d="m1885.79,1688.79s-7.07-1.26-8.33-4.48c-1.27-3.22,6.38.34,8.33,4.48Z"/>
      </g>
      <g>
        <path class="cls-17" d="m1860.97,1685.8s5.66-4.41,8.9-3.2c3.24,1.21-4.52,4.51-8.9,3.2Z"/>
        <path class="cls-17" d="m1887.79,1680.32s-6.34,3.38-9.32,1.63c-2.98-1.75,5.22-3.67,9.32-1.63Z"/>
      </g>
      <g>
        <path class="cls-17" d="m1864.1,1690.74s3.52-6.26,6.98-6.39c3.46-.13-2.42,5.91-6.98,6.39Z"/>
        <path class="cls-17" d="m1885.34,1673.42s-3.52,6.26-6.98,6.39c-3.46.13,2.42-5.91,6.98-6.39Z"/>
      </g>
      <g>
        <path class="cls-17" d="m1868.73,1694.42s.46-7.16,3.52-8.78c3.06-1.62.37,6.37-3.52,8.78Z"/>
        <path class="cls-17" d="m1880.38,1669.61s-.46,7.17-3.52,8.78c-3.06,1.62-.37-6.37,3.52-8.78Z"/>
      </g>
      <path class="cls-17" d="m1860.61,1681.18s6.71-2.56,9.45-.45-5.64,2.99-9.45.45Z"/>
      <path class="cls-25" d="m1879.11,1681.61c0-2.76-2.24-5-5-5s-5,2.24-5,5,2.24,5,5,5,5-2.24,5-5Z"/>
    </g>
    <path class="cls-10" d="m1862.32,1719.67s4.35-4.42,10.34-4.72c6-.3,7.84,0,7.84,0,0,0-3.69,3.9-8.09,4.72-4.4.82-10.1,0-10.1,0Z"/>
    <path class="cls-10" d="m1863.22,1715.38c-.76-.66-1.33-6.05-5.98-7.4-4.65-1.35-7.95-1.61-7.95-1.61,0,0,4.03,7.01,6.96,8.06,2.93,1.05,6.96.95,6.96.95Z"/>
  </g>
  <g>
    <g>
      <path class="cls-7" d="m422.84,1263.67v477.41h-105.31c-.05-.14-.1-.31-.17-.48-.04-.1-.08-.21-.12-.31-.35-.92-.81-2.15-1.4-3.73l-.23-.46v-.23s-.23-.25-.23-.48c-.94-1.88-1.65-4.01-2.59-6.59-.48-1.19-.94-2.6-1.65-4.01v-.48l-.23-.23c-3.24-8.4-7.24-19.35-11.87-32.57-.41-1.2-.84-2.41-1.28-3.63-3.47-9.99-7.28-21.18-11.34-33.5-1.87-5.79-3.79-11.83-5.76-18.11-8.17-26.11-17.07-56.27-25.79-89.5-4.24-16.25-8.48-33.2-12.49-50.87-2.36-10.2-4.73-20.82-7-31.54-.66-3.14-1.3-6.29-1.95-9.43-4.16-20.08-8.08-40.77-11.61-61.91-4.65-27.76-8.65-56.3-11.69-85.27-1.51-14.22-2.78-28.55-3.8-42.95-.03-.37-.06-.76-.08-1.13h216.61Z"/>
      <polygon class="cls-29" points="336.28 1065.34 447.85 1295.01 786.79 1295.01 610.08 1066.18 336.28 1065.34"/>
      <polygon class="cls-24" points="773.42 1295.01 763.34 1281.97 596.71 1066.18 322.9 1065.34 422.83 1271.06 422.83 1741.05 763.34 1741.05 763.34 1295.01 773.42 1295.01"/>
      <path class="cls-6" d="m551.3,1180.18h93.27v112.68c0,23.38-18.98,42.36-42.36,42.36h-7.12c-24.17,0-43.78-19.62-43.78-43.78v-111.26h0Z" transform="translate(1195.87 2515.4) rotate(180)"/>
      <path class="cls-29" d="m610.98,1065.34l-.76,1.02-6.6,8.79-159.38,212.46-15.11,20.15h-219.03c-1.51-14.22-2.78-28.55-3.8-42.95-.03-.37-.06-.76-.08-1.13-.04-.39-.06-.77-.09-1.16-1.39-20.29-2.27-40.72-2.53-61.13l105-135.99h44.51l155.48-.03,102.37-.03Z"/>
    </g>
    <g>
      <polygon class="cls-29" points="633.65 1359.16 713.08 1522.67 954.4 1522.67 828.59 1359.76 633.65 1359.16"/>
      <g>
        <polygon class="cls-24" points="947.16 1522.67 821.36 1359.76 626.42 1359.16 705.85 1522.67 706.38 1522.67 706.38 1740.6 947.16 1741.07 947.16 1522.67 947.16 1522.67"/>
        <rect class="cls-7" x="502.48" y="1522.67" width="203.9" height="217.93"/>
        <polygon class="cls-29" points="480.08 1532.34 699.11 1532.34 828.59 1359.75 763.34 1359.76 613.32 1359.8 480.08 1532.34"/>
        <path class="cls-6" d="m777.86,1558.97v182.1h101.44v-180.43c0-15.03-6.43-28.56-16.69-37.98-9.17-8.44-21.41-13.58-34.86-13.58s-25.29,5.16-34.2,13.58c-9.66,9.09-15.68,21.99-15.68,36.3Z"/>
        <path class="cls-6" d="m839.97,1450.53c0-6.29-5.1-11.38-11.38-11.38s-11.38,5.1-11.38,11.38,5.1,11.38,11.38,11.38,11.38-5.1,11.38-11.38Z"/>
        <polygon class="cls-18" points="480.08 1532.34 521.65 1532.34 763.34 1359.76 613.32 1359.8 480.08 1532.34"/>
      </g>
    </g>
  </g>
  <g>
    <polygon class="cls-32" points="441.88 1226.39 241.7 1226.39 347.3 1096.88 547.48 1096.88 441.88 1226.39"/>
    <g>
      <polygon class="cls-23" points="520.22 1130.99 320.03 1130.99 321.27 1129.46 521.46 1129.46 520.22 1130.99"/>
      <polygon class="cls-23" points="394.35 1096.87 288.75 1226.38 287.23 1226.38 392.83 1096.87 394.35 1096.87"/>
      <polygon class="cls-23" points="447.39 1096.87 341.79 1226.38 340.27 1226.38 445.87 1096.87 447.39 1096.87"/>
      <polygon class="cls-23" points="498.43 1096.87 392.83 1226.38 391.3 1226.38 496.91 1096.87 498.43 1096.87"/>
      <polygon class="cls-23" points="494.06 1162.39 293.88 1162.39 295.12 1160.87 495.3 1160.87 494.06 1162.39"/>
      <polygon class="cls-23" points="466.44 1196.27 266.25 1196.27 267.5 1194.75 467.68 1194.75 466.44 1196.27"/>
      <g>
        <polygon class="cls-23" points="361.03 1136.57 359.88 1130.33 371.21 1124.09 372.36 1130.33 361.03 1136.57"/>
        <polygon class="cls-23" points="413.5 1136.57 412.35 1130.33 423.67 1124.09 424.83 1130.33 413.5 1136.57"/>
        <polygon class="cls-23" points="465.3 1136.57 464.15 1130.33 475.47 1124.09 476.62 1130.33 465.3 1136.57"/>
      </g>
      <g>
        <polygon class="cls-23" points="335.51 1167.87 334.36 1161.63 345.68 1155.39 346.84 1161.63 335.51 1167.87"/>
        <polygon class="cls-23" points="387.98 1167.87 386.83 1161.63 398.15 1155.39 399.3 1161.63 387.98 1167.87"/>
        <polygon class="cls-23" points="439.78 1167.87 438.63 1161.63 449.95 1155.39 451.1 1161.63 439.78 1167.87"/>
      </g>
      <g>
        <polygon class="cls-23" points="307.89 1201.75 306.74 1195.51 318.06 1189.27 319.21 1195.51 307.89 1201.75"/>
        <polygon class="cls-23" points="360.36 1201.75 359.21 1195.51 370.53 1189.27 371.68 1195.51 360.36 1201.75"/>
        <polygon class="cls-23" points="412.16 1201.75 411.01 1195.51 422.33 1189.27 423.48 1195.51 412.16 1201.75"/>
      </g>
    </g>
  </g>
  <path class="cls-15" d="m2663.54,655.83c-.08,4.96-.23,9.98-.48,15.03-1.04,21.55-3.62,43.85-7.88,66.89l-313.19-4.11s28.34-66.91,96.14-59.47c0,0,98.42-111.53,203.36-14.87,0,0,8.3-1.78,22.04-3.47Z"/>
  <path class="cls-15" d="m1644.95,443.49s14.68-35.33,49.78-31.41c0,0,50.96-58.89,105.31-7.85,0,0,57.77-12.65,100.55,10.95,28.52,15.73,37.94,32.23,37.94,32.23l-293.58-3.93Z"/>
  <path class="cls-15" d="m464.19,956.59s15.68-37.75,53.19-33.56c0,0,54.45-62.92,112.51-8.39,0,0,61.72-13.51,107.43,11.7,30.48,16.81,40.54,34.44,40.54,34.44l-313.67-4.19Z"/>
  <path class="cls-15" d="m382.46,841.11s12-28.89,40.7-25.68c0,0,41.67-48.15,86.1-6.42,0,0,47.23-10.34,82.21,8.95,23.32,12.86,31.02,26.36,31.02,26.36l-240.04-3.21Z"/>
  <path class="cls-10" d="m2909.38,1570.19c-1.46,14.92-3.98,30.49-7.67,46.76-.08.34-.15.67-.25,1.02-82.79,29.99-168.12,69.78-244.1,122.33h-205.44c29.77-19.15,174.89-99.5,457.46-170.11Z"/>
  <g>
    <g>
      <path class="cls-31" d="m2453.06,1526.46s157.65-13.82,200.5,0c42.85,13.82,64.28,78.1,58.16,125.04-6.12,46.94-20.41,86.73-47.96,85.71-27.55-1.02-222.43,0-222.43,0l11.73-210.75Z"/>
      <path class="cls-31" d="m2485.26,1524.05s33.37-6.21,56.07-8.51c0,0-17.86,3.66-20.07,5.53,0,0,48.47-7.31,66.15-5.53,17.69,1.79,41.92,4.78,41.92,4.78l26.95-1.8s-22.45,2.72-21.26,3.06c1.19.34,21.94,2.89,28.57,7.14,0,0,20.58,6.46,25,10.37,0,0-16.5-8.33-22.96-7.82,0,0,37.38,25.93,37.48,50.63s-160.77-37.2-160.77-37.2l-57.09-20.65Z"/>
    </g>
    <g>
      <path class="cls-17" d="m2475.61,1525.22s-62.75-4.77-102.54,45.73c-39.79,50.5-7.65,167.46,44.38,167.9,52.04.45,116.13-7.55,130-75.48,13.87-67.93-15.21-136.44-71.84-138.15Z"/>
      <path class="cls-17" d="m2347.12,1625.99s22.45-25.85,24.83-32.99l3.4,7.14-28.23,25.85Z"/>
      <path class="cls-17" d="m2363.32,1587.73s2.84-18.53,11.01-25.33c0,0-7.42,12.42-5.5,22.79,1.92,10.36-5.5,2.55-5.5,2.55Z"/>
      <path class="cls-17" d="m2374.33,1718.84c.41.99-12.07-33.93-7.99-40.56l2.38.02s1.62,30.84,5.62,40.54Z"/>
      <path class="cls-17" d="m2364.3,1673.44s-9.35-3.06-14.62,0c0,0,8.67-2.43,13.94,2.72,5.28,5.15.68-2.72.68-2.72Z"/>
    </g>
    <path class="cls-31" d="m2450.78,1737.09c-14.43,0-31.79-2.45-46.62-11.52-16.03-9.81-26.49-25.62-31.11-47-7.87-36.4-4-66.26,11.48-88.76,14.48-21.03,38.92-34.73,70.69-39.61,21.44-3.3,40.01,3.64,53.69,20.04,19.77,23.7,25.45,63.75,13.81,97.38-8.22,23.76-30.18,38.44-58.73,39.26-.82.02-1.63.04-2.44.04-28.76,0-54.69-14.7-63.6-36.31-9.08-22.03-8.6-43.58,1.33-60.68,10.08-17.36,29.13-28.66,53.62-31.8,22.17-2.86,34.13,7.47,40.26,16.63,11.82,17.67,11.79,46.38,3.87,60.24-7.63,13.35-28.76,23.66-47.11,23.02-13.24-.48-23.35-6.6-28.46-17.25-6.58-13.7-6.14-27.85,1.18-38.82,5.9-8.83,15.43-14.22,24.27-13.74,10.16.55,14.48,9.03,15.11,16.13.55,6.25-1.58,13.2-6.72,14.4-9.55,2.23-12.93-2.98-13.07-3.21,0,0-5.16-8.51,1.26-9.73,7.35-1.4,5.41,4.3,5.41,4.3.1.16-1.82,7.86,5.8,6.08,3.14-.73,5.2-5.84,4.7-11.62-.56-6.34-4.17-13.28-12.63-13.74-7.95-.45-16.55,4.5-21.95,12.58-6.8,10.18-7.16,23.38-1,36.23,5.99,12.47,17.55,15.46,26.19,15.77,17.46.6,37.54-9.11,44.74-21.7,6.67-11.67,8.46-39.18-3.77-57.48-8.19-12.25-21.25-17.61-37.75-15.49-23.66,3.04-42.02,13.88-51.68,30.52-9.51,16.38-9.93,37.1-1.17,58.36,8.75,21.23,34.89,35.48,63.53,34.65,27.42-.79,48.48-14.81,56.33-37.5,11.35-32.81,5.86-71.8-13.35-94.84-9.11-10.92-25.39-23.09-51.27-19.13-31.04,4.77-54.87,18.08-68.93,38.5-15.06,21.88-18.79,51.05-11.08,86.72,4.46,20.65,14.53,35.9,29.92,45.32,31.1,19.03,80.15,7.51,80.58,7.4l-5.55,3c-.24.06-13.02,3.36-29.77,3.36Z"/>
  </g>
  <g>
    <g>
      <path class="cls-31" d="m2696.94,1453.26s211.98-18.58,269.61,0c57.62,18.58,86.44,105.02,78.2,168.13-8.23,63.11-27.44,116.62-64.48,115.25-37.04-1.37-299.1,0-299.1,0l15.77-283.38Z"/>
      <path class="cls-31" d="m2740.23,1450.01s44.86-8.36,75.39-11.44c0,0-24.01,4.92-26.98,7.43,0,0,65.17-9.83,88.95-7.43,23.78,2.4,56.37,6.43,56.37,6.43l36.24-2.43s-30.18,3.66-28.58,4.12c1.6.46,29.5,3.89,38.42,9.6,0,0,27.67,8.69,33.61,13.95,0,0-22.18-11.21-30.87-10.52,0,0,50.27,34.87,50.4,68.08.13,33.22-216.19-50.02-216.19-50.02l-76.76-27.77Z"/>
    </g>
    <g>
      <path class="cls-17" d="m2727.26,1451.59s-84.38-6.42-137.88,61.5c-53.51,67.91-10.29,225.17,59.68,225.77,69.97.6,156.15-10.15,174.8-101.5,18.64-91.35-20.46-183.47-96.6-185.77Z"/>
      <path class="cls-17" d="m2554.49,1587.09s30.18-34.76,33.38-44.36l4.57,9.6-37.96,34.76Z"/>
      <path class="cls-17" d="m2576.27,1535.63s3.83-24.92,14.8-34.07c0,0-9.98,16.71-7.4,30.64,2.58,13.94-7.4,3.42-7.4,3.42Z"/>
      <path class="cls-17" d="m2591.07,1711.94c.55,1.34-16.24-45.62-10.75-54.54l3.19.03s2.18,41.47,7.55,54.51Z"/>
      <path class="cls-17" d="m2577.58,1650.89s-12.58-4.12-19.67,0c0,0,11.65-3.26,18.75,3.66,7.1,6.92.92-3.66.92-3.66Z"/>
    </g>
    <path class="cls-31" d="m2693.87,1736.47c-19.4,0-42.75-3.29-62.69-15.49-21.55-13.19-35.62-34.45-41.84-63.2-10.58-48.94-5.38-89.09,15.44-119.35,19.47-28.28,52.34-46.7,95.05-53.26,28.83-4.43,53.8,4.89,72.19,26.95,26.58,31.87,34.21,85.72,18.57,130.94-11.05,31.95-40.58,51.69-78.97,52.8-1.1.03-2.19.05-3.28.05-38.68,0-73.54-19.77-85.51-48.83-12.2-29.62-11.57-58.6,1.78-81.59,13.56-23.35,39.16-38.53,72.1-42.76,29.81-3.84,45.9,10.05,54.14,22.36,15.9,23.76,15.86,62.36,5.2,81-10.26,17.95-38.68,31.81-63.35,30.95-17.8-.64-31.39-8.88-38.27-23.2-8.84-18.42-8.26-37.45,1.59-52.2,7.93-11.88,20.75-19.12,32.64-18.48,13.66.74,19.48,12.15,20.31,21.69.74,8.41-2.13,17.76-9.03,19.37-12.84,2.99-17.39-4.01-17.58-4.31,0,0-6.93-11.45,1.69-13.09,9.88-1.88,7.28,5.78,7.28,5.78.14.21-2.44,10.58,7.8,8.18,4.22-.99,7-7.85,6.32-15.62-.75-8.52-5.6-17.85-16.99-18.47-10.69-.61-22.26,6.06-29.51,16.92-9.14,13.69-9.63,31.44-1.34,48.71,8.05,16.77,23.59,20.78,35.21,21.2,23.48.8,50.48-12.25,60.16-29.18,8.97-15.69,11.38-52.69-5.07-77.29-11.02-16.47-28.57-23.68-50.75-20.82-31.82,4.09-56.5,18.66-69.5,41.04-12.79,22.02-13.35,49.89-1.57,78.47,11.76,28.55,46.92,47.71,85.43,46.6,36.87-1.06,65.19-19.91,75.74-50.42,15.26-44.11,7.88-96.55-17.95-127.52-12.24-14.68-34.14-31.05-68.94-25.72-41.73,6.41-73.78,24.31-92.68,51.77-20.25,29.42-25.26,68.65-14.9,116.6,6,27.77,19.54,48.27,40.23,60.94,41.81,25.59,107.77,10.1,108.35,9.95l-7.46,4.03c-.32.08-17.51,4.52-40.04,4.52Z"/>
  </g>
  <g>
    <path class="cls-8" d="m1162.41,1535.36s-36.38,140.38-33.12,151.47c3.26,11.09,21.53,48.79,21.53,48.79h-17.58s-7.11-3.48-6.82-12.18c.29-8.7-24.36-42.63-24.36-42.63,0,0,9.67-53.89,0-75.12-41.65-91.42,28.11-90.55,60.34-70.33Z"/>
    <path class="cls-8" d="m1349.28,1583.94s-10.44,75.41-11.02,80.05c-.58,4.64-5.51,10.44-5.22,17.98.29,7.54,2.9,33.06,11.02,39.44,8.12,6.38,8.99,14.21,8.99,14.21h-22.04s-3.77-7.54-3.19-12.76c.58-5.22-6.09-10.73-6.38-21.46-.29-10.73,0-30.74-2.9-37.71-2.9-6.96-2.03-54.82-11.6-65.55-9.57-10.73,42.34-14.21,42.34-14.21Z"/>
    <path class="cls-6" d="m1109.46,1558.72c-.24,3.48-.36,6.71-.36,9.95.6,81.64,81.4,57.18,84.27,55.02,3.12-2.16,8.75-1.92,8.75-1.92,40.4,16.07,96.98,1.32,108.73-3.48,11.75-4.8,43.04,7.07,57.54,5.99,5.87-.48,10.79-6.59,14.51-14.26,5.27-10.91,8.27-24.94,8.75-29.85.24-2.76,3.96-13.31,8.99-26.25,2.04-5.04,4.32-10.55,6.71-16.18.48-.96.84-2.04,1.32-3-1.2-1.32-2.28-2.76-3.36-4.2-6.35-8.39-10.79-18.22-15.7-28.05-5.04-10.31-10.43-20.86-18.46-30.33-11.87-3.72-26.01,3-31.89,2.64-6.83-.24-13.55-1.44-19.66-2.4-2.52-.48-4.79-.84-6.95-1.2-11.99-1.8-84.63,7.55-135.94,8.99-10.55.36-20.14.24-28.17-.24-.6,0-1.2-.12-1.8-.12-21.46-1.2-32.85.12-38.84,2.04-6.59,2.04-6.71,4.56-6.71,4.56-20.5,20.02,8.27,72.29,8.27,72.29Z"/>
    <path class="cls-6" d="m1375.69,1583.94s-10.44,75.41-11.02,80.05c-.58,4.64-5.51,10.44-5.22,17.98.29,7.54,2.9,33.06,11.02,39.44,8.12,6.38,8.99,14.21,8.99,14.21h-22.04s-3.77-7.54-3.19-12.76-6.09-10.73-6.38-21.46c-.29-10.73,0-30.74-2.9-37.71-2.9-6.96-2.03-54.82-11.6-65.55-9.57-10.73,42.34-14.21,42.34-14.21Z"/>
    <path class="cls-6" d="m1185.1,1566.76s-29.36,108.97-26.1,120.07,21.53,48.79,21.53,48.79h-17.58s-7.11-3.48-6.82-12.18c.29-8.7-24.36-42.63-24.36-42.63,0,0-1.99-61.51-16.49-79.79-14.5-18.27,37.59-54.48,69.82-34.26Z"/>
    <g>
      <path class="cls-6" d="m1484.23,1594.65c1.19,1.6,2.23,2.73,2.23,2.73.17-.07,2.42.37,5.22.26,2.25-.09,4.88-.54,7.03-1.91,1.43-.92,2.65-2.22,3.44-4.1,0,0-1-2.57-6.22-3.25-3.85-.5-7.63-3.17-10.85-3.51h0c-1.16-.11-2.25.07-3.24.77-2.42,1.71.22,6.11,2.39,9.01Z"/>
      <path class="cls-6" d="m1489.79,1604.82c.15-.07,1.98.28,4.38.27,3.85-.01,9.18-.94,11.33-6.02,0,0-1-2.57-6.22-3.25-.18-.02-.37-.05-.55-.09-3.36-.6-6.67-2.71-9.56-3.3-1.45-.29-2.79-.2-3.99.64-.57.4-.86.94-.94,1.59-.48,3.6,5.55,10.17,5.55,10.17Z"/>
      <path class="cls-6" d="m1370.2,1494.71c1.44,37.4,8.39,108.97,12.71,115.33,10.55.48,19.06,1.44,26.01,2.88,21.58,4.43,27.57,12.58,29.61,16.42,3.84,7.67,21.82,25.18,24.94,25.78,3.24.6,5.15,4.79,8.51,11.63,3.24,6.71,9.71,7.31,15.1,7.67,5.4.24,9.83-6.23,9.95-7.79.12-1.68-2.76-6.71-2.28-13.43.36-6.71-3.95-26.73-.36-32.13,2.28-3.48.96-10.91-.24-15.95-.72-3-1.44-5.03-1.44-5.03-.24-.72-.6-1.56-1.08-2.4-.72-1.56-1.56-3.36-2.52-5.27-1.08-2.28-2.52-4.8-4.08-7.55-6.47-11.51-16.18-26.49-28.89-42.2-12.71-15.83-28.29-32.13-46.75-46.51-11.63-9.11-24.46-17.38-38.24-23.98-1.2.48-1.44,9.47-.96,22.54Z"/>
    </g>
    <path class="cls-32" d="m1353.46,1565.44c-.76-1.93-.37-34.75-24.05-41.49-23.69-6.74-36.65,3.63-66.21-8.3-29.56-11.93-60.67-21.78-63.79-8.82-3.11,12.96,2.59,49.27,0,65.86-2.59,16.59,53.53,22.47,76.55,12.27,23.02-10.2,85.83,1.73,77.5-19.53Z"/>
    <path class="cls-32" d="m1101.17,1486.48s-15.34,13.09-17.93,36.43c-2.59,23.34,4.67,125.87,4.67,125.87l5.92-.33,6.35-113.44.99-48.53Z"/>
    <path class="cls-32" d="m1094.82,1661.83s-12.79-13.77-4.84-16.88c7.95-3.11,4.84,6.22,4.84,9.85v7.02Z"/>
    <path class="cls-11" d="m1107.91,1481.88c14.86,7.31,31.29,14.03,41,14.27,21.22.36,72.77-11.87,93.75-13.19,20.98-1.32,105.97,18.34,125.99,11.99.48-.24.96-.24,1.56-.24,4.44-.36,11.15,2.76,19.42,7.79,4.67,3,9.83,6.59,15.22,10.67,34.89,26.37,80.2,71.69,80.2,71.69-6.47-11.51-16.18-26.49-28.89-42.2-12.71-15.83-28.29-32.13-46.75-46.51-11.63-9.11-24.46-17.38-38.24-23.98-11.87-3.72-26.01,3-31.89,2.64-6.83-.24-13.55-1.44-19.66-2.4-2.52-.48-4.79-.84-6.95-1.2-11.99-1.8-84.63,7.55-135.94,8.99-10.55.36-20.14.24-28.17-.24-.6,0-1.2-.12-1.8-.12-21.46-1.2-32.85.12-38.84,2.04Z"/>
    <path class="cls-32" d="m1176.74,1480.2c9.28,7.57,27.08,10.59,52.23,5.9,30.6-5.7,37.86,7.78,63.27,8.82,22.42.91,26.67-18.04,27.36-22.52-2.47-.41-4.81-.81-6.98-1.14-11.91-1.8-84.62,7.47-135.88,8.94Z"/>
    <path class="cls-32" d="m1405.33,1530.55c.48,2.4,1.2,4.79,2.04,7.19,1.08,2.64,2.4,5.15,3.96,7.79,13.55,21.58.72,47.47-2.4,67.37,21.58,4.43,27.57,12.58,29.61,16.42,3.84,7.67,21.82,25.18,24.94,25.78,3.24.6,5.15,4.79,8.51,11.63,3.24,6.71,9.71,7.31,15.1,7.67,5.4.24,9.83-6.23,9.95-7.79.12-1.68-2.76-6.71-2.28-13.43.36-6.71-3.95-26.73-.36-32.13,2.28-3.48.96-10.91-.24-15.95,3.84,0,9.23-.96,11.39-5.99,0,0-1.08-2.64-6.23-3.36h-.6c1.44-.96,2.64-2.28,3.48-4.19,0,0-1.08-2.52-6.23-3.24-3.84-.48-7.67-3.12-10.91-3.48-6.47-11.51-16.18-26.49-28.89-42.2-12.71-15.83-28.29-32.13-46.75-46.51-1.92,4.79-3.72,10.67-4.56,17.02-.72,5.51-.72,11.51.48,17.38Z"/>
    <path class="cls-32" d="m1109.44,1558.7c-.23,3.48-.32,6.79-.3,9.94,26.32,19.52,72.49,9.67,75.96-13.82,3.99-27.05-32.37-30.88-29.7-53.17,1.09-9.09-3.19-16.38-8.65-21.81-45.15-2.68-45.57,6.64-45.57,6.64-20.44,20.01,8.27,72.22,8.27,72.22Z"/>
  </g>
  <g>
    <path class="cls-13" d="m875.41,531.83h930.23c32.91,0,59.63,26.72,59.63,59.63v578.65c0,32.91-26.72,59.63-59.63,59.63h-930.24c-32.91,0-59.62-26.72-59.62-59.62v-578.65c0-32.91,26.72-59.63,59.63-59.63Z"/>
    <g>
      <path class="cls-21" d="m1199.97,759.06c0,83.41-67.59,151-151,151s-151-67.59-151-151,67.59-151,151-151c9.48,0,18.77.87,27.77,2.56-18.85,68.69-43.86,159.66-45.54,165.33,3.11-4.9,94.95-46.07,157.66-73.81,7.18,17.57,11.12,36.79,11.12,56.93Z"/>
      <path class="cls-4" d="m1197.24,685.66c-55.38,24.4-147.12,65.3-150.05,69.93,1.59-5.39,26.97-97.64,43.97-159.46,47.07,12.91,85.76,46.08,106.09,89.54Z"/>
    </g>
    <g>
      <path class="cls-23" d="m1563.89,577.54c0-6.93,5.62-12.55,12.55-12.55s12.55,5.62,12.55,12.55-5.62,12.55-12.55,12.55-12.55-5.62-12.55-12.55Z"/>
      <path class="cls-23" d="m1629.02,577.54c0-6.93,5.62-12.55,12.55-12.55s12.55,5.62,12.55,12.55-5.62,12.55-12.55,12.55-12.55-5.62-12.55-12.55Z"/>
      <circle class="cls-4" cx="1708.78" cy="577.54" r="12.55" transform="translate(92.11 1377.45) rotate(-45)"/>
    </g>
    <g>
      <path class="cls-23" d="m1174.61,1177.75h-292.19v-92.98h292.19v92.98Zm-288.6-3.59h285.02v-85.8h-285.02v85.8Z"/>
      <g>
        <rect class="cls-23" x="903.59" y="1109.76" width="113.02" height="7.37"/>
        <rect class="cls-23" x="1028.51" y="1109.76" width="80.2" height="7.37"/>
        <rect class="cls-23" x="903.59" y="1130.81" width="62.37" height="7.37"/>
        <rect class="cls-23" x="976.52" y="1130.81" width="80.2" height="7.37"/>
        <rect class="cls-23" x="1065.02" y="1130.81" width="80.2" height="7.37"/>
      </g>
    </g>
    <g>
      <path class="cls-23" d="m1541.4,1130.81h-144.66v-46.03h144.66v46.03Zm-142.88-1.78h141.11v-42.48h-141.11v42.48Z"/>
      <g>
        <rect class="cls-23" x="1407.23" y="1097.15" width="55.95" height="3.65"/>
        <rect class="cls-23" x="1469.07" y="1097.15" width="39.7" height="3.65"/>
        <rect class="cls-23" x="1407.23" y="1107.57" width="30.88" height="3.65"/>
        <rect class="cls-23" x="1443.33" y="1107.57" width="39.7" height="3.65"/>
        <rect class="cls-23" x="1487.15" y="1107.57" width="39.7" height="3.65"/>
      </g>
    </g>
    <g>
      <path class="cls-23" d="m1713.89,1130.81h-144.66v-46.03h144.66v46.03Zm-142.88-1.78h141.11v-42.48h-141.11v42.48Z"/>
      <g>
        <rect class="cls-23" x="1579.72" y="1097.15" width="55.96" height="3.65"/>
        <rect class="cls-23" x="1641.56" y="1097.15" width="39.7" height="3.65"/>
        <rect class="cls-23" x="1579.72" y="1107.57" width="30.88" height="3.65"/>
        <rect class="cls-23" x="1615.82" y="1107.57" width="39.7" height="3.65"/>
        <rect class="cls-23" x="1659.64" y="1107.57" width="39.7" height="3.65"/>
      </g>
    </g>
    <g>
      <path class="cls-23" d="m1541.4,926.08h-144.66v-46.03h144.66v46.03Zm-142.88-1.77h141.11v-42.48h-141.11v42.48Z"/>
      <g>
        <rect class="cls-23" x="1407.23" y="892.41" width="55.95" height="3.65"/>
        <rect class="cls-23" x="1469.07" y="892.41" width="39.7" height="3.65"/>
        <rect class="cls-23" x="1407.23" y="902.83" width="30.88" height="3.65"/>
        <rect class="cls-23" x="1443.33" y="902.83" width="39.7" height="3.65"/>
        <rect class="cls-23" x="1487.15" y="902.83" width="39.7" height="3.65"/>
      </g>
    </g>
    <g>
      <path class="cls-23" d="m1713.89,926.08h-144.66v-46.03h144.66v46.03Zm-142.88-1.77h141.11v-42.48h-141.11v42.48Z"/>
      <g>
        <rect class="cls-23" x="1579.72" y="892.41" width="55.96" height="3.65"/>
        <rect class="cls-23" x="1641.56" y="892.41" width="39.7" height="3.65"/>
        <rect class="cls-23" x="1579.72" y="902.83" width="30.88" height="3.65"/>
        <rect class="cls-23" x="1615.82" y="902.83" width="39.7" height="3.65"/>
        <rect class="cls-23" x="1659.64" y="902.83" width="39.7" height="3.65"/>
      </g>
    </g>
    <g>
      <path class="cls-23" d="m1541.4,747.86h-144.66v-46.03h144.66v46.03Zm-142.88-1.77h141.11v-42.48h-141.11v42.48Z"/>
      <g>
        <rect class="cls-23" x="1407.23" y="714.2" width="55.95" height="3.65"/>
        <rect class="cls-23" x="1469.07" y="714.2" width="39.7" height="3.65"/>
        <rect class="cls-23" x="1407.23" y="724.62" width="30.88" height="3.65"/>
        <rect class="cls-23" x="1443.33" y="724.62" width="39.7" height="3.65"/>
        <rect class="cls-23" x="1487.15" y="724.62" width="39.7" height="3.65"/>
      </g>
    </g>
    <g>
      <path class="cls-23" d="m1713.89,747.86h-144.66v-46.03h144.66v46.03Zm-142.88-1.77h141.11v-42.48h-141.11v42.48Z"/>
      <g>
        <rect class="cls-23" x="1579.72" y="714.2" width="55.96" height="3.65"/>
        <rect class="cls-23" x="1641.56" y="714.2" width="39.7" height="3.65"/>
        <rect class="cls-23" x="1579.72" y="724.62" width="30.88" height="3.65"/>
        <rect class="cls-23" x="1615.82" y="724.62" width="39.7" height="3.65"/>
        <rect class="cls-23" x="1659.64" y="724.62" width="39.7" height="3.65"/>
      </g>
    </g>
    <g>
      <g>
        <path class="cls-4" d="m1301.45,673.08c0-9.04,7.33-16.37,16.37-16.37s16.36,7.33,16.36,16.37-7.33,16.36-16.36,16.36-16.37-7.33-16.37-16.36Z"/>
        <g>
          <rect class="cls-4" x="1314.76" y="613.36" width="6.84" height="35.79" rx="2.62" ry="2.62"/>
          <rect class="cls-4" x="1314.76" y="698.07" width="6.84" height="35.79" rx="2.62" ry="2.62"/>
          <g>
            <path class="cls-4" d="m1337.47,688.67l.94-1.29c.85-1.17,2.5-1.42,3.67-.57l24.67,18c1.17.85,1.42,2.5.57,3.67l-.94,1.29c-.85,1.17-2.5,1.42-3.67.57l-24.67-18c-1.17-.85-1.42-2.5-.57-3.67Z"/>
            <path class="cls-4" d="m1269.04,638.74l.94-1.29c.85-1.17,2.5-1.42,3.67-.57l24.67,18c1.17.85,1.42,2.5.57,3.67l-.94,1.29c-.85,1.17-2.5,1.42-3.67.57l-24.67-18c-1.17-.85-1.42-2.5-.57-3.67Z"/>
          </g>
          <g>
            <path class="cls-4" d="m1299.05,689.31l1.06,1.19c.96,1.08.87,2.74-.21,3.71l-22.77,20.35c-1.08.96-2.74.87-3.71-.21l-1.06-1.19c-.96-1.08-.87-2.74.21-3.7l22.77-20.35c1.08-.96,2.74-.87,3.7.21Z"/>
            <path class="cls-4" d="m1362.21,632.86l1.06,1.19c.96,1.08.87,2.74-.21,3.71l-22.77,20.35c-1.08.96-2.74.87-3.7-.21l-1.06-1.19c-.96-1.08-.87-2.74.21-3.7l22.77-20.35c1.08-.96,2.74-.87,3.7.21Z"/>
          </g>
          <g>
            <path class="cls-4" d="m1293,672l-.02,1.59c-.02,1.44-1.21,2.61-2.65,2.59l-30.54-.34c-1.44-.02-2.61-1.21-2.59-2.65l.02-1.59c.02-1.44,1.21-2.61,2.65-2.59l30.54.34c1.44.02,2.61,1.21,2.59,2.65Z"/>
            <path class="cls-4" d="m1359.01,655.66h1.59c1.45,0,2.62,1.18,2.62,2.62v30.54c0,1.45-1.18,2.62-2.62,2.62h-1.59c-1.45,0-2.62-1.18-2.62-2.62v-30.54c0-1.45,1.18-2.62,2.62-2.62Z" transform="translate(670.92 2025.66) rotate(-89.35)"/>
          </g>
        </g>
      </g>
      <g>
        <path class="cls-23" d="m1722.88,683.57h-326.13v-26.45h326.13v26.45Zm-323.04-3.1h319.94v-20.26h-319.94v20.26Z"/>
        <rect class="cls-23" x="1398.29" y="658.67" width="253.15" height="23.35"/>
      </g>
    </g>
    <g>
      <path class="cls-23" d="m1295.55,856.42c0-21.37,32.78-61.66,32.78-61.66,0,0,32.78,40.29,32.78,61.66s-14.67,38.7-32.78,38.7-32.78-17.32-32.78-38.7Z"/>
      <g>
        <path class="cls-4" d="m1722.88,858.16h-326.13v-26.45h326.13v26.45Zm-323.04-3.09h319.94v-20.26h-319.94v20.26Z"/>
        <rect class="cls-4" x="1398.29" y="833.26" width="154.7" height="23.35"/>
      </g>
    </g>
    <g>
      <path class="cls-23" d="m1342.31,1067.16v-85.56h-18.47v85.56c-6.1,3.29-10.25,9.74-10.25,17.16,0,10.76,8.72,19.48,19.48,19.48s19.48-8.72,19.48-19.48c0-7.42-4.15-13.87-10.25-17.16Z"/>
      <g>
        <path class="cls-23" d="m1722.88,1055.93h-326.13v-26.45h326.13v26.45Zm-323.04-3.09h319.94v-20.26h-319.94v20.26Z"/>
        <rect class="cls-23" x="1398.29" y="1031.03" width="212.26" height="23.35"/>
      </g>
      <path class="cls-4" d="m1320.44,1084.23c0-6.98,5.66-12.64,12.64-12.64s12.64,5.66,12.64,12.64-5.66,12.64-12.64,12.64-12.64-5.66-12.64-12.64Z"/>
      <rect class="cls-4" x="1329.03" y="1038.97" width="7.53" height="39.59"/>
    </g>
    <g>
      <rect class="cls-23" x="884.21" y="1014.03" width="30.47" height="42.37"/>
      <rect class="cls-23" x="936.41" y="985.94" width="30.47" height="70.45"/>
      <rect class="cls-4" x="988.61" y="962.93" width="30.47" height="93.46"/>
      <rect class="cls-23" x="1040.81" y="981.61" width="30.47" height="74.79"/>
      <rect class="cls-23" x="1093.01" y="941.8" width="30.47" height="114.59"/>
      <rect class="cls-4" x="1145.21" y="921.36" width="30.47" height="135.03"/>
    </g>
    <rect class="cls-2" x="976.52" y="825.81" width="64.3" height="5.9"/>
    <rect class="cls-2" x="976.52" y="839.32" width="98.53" height="5.9"/>
    <rect class="cls-2" x="1090.64" y="647.42" width="64.3" height="5.9"/>
    <rect class="cls-2" x="1090.64" y="660.93" width="40.25" height="5.9"/>
  </g>
  <g>
    <path class="cls-27" d="m2348.88,779.08s121.94,138.59,164.49,224.13c0,0-51.16,111.38-216.99,201.86,0,0-7.37-1.61-18.62-9.65-17.55-12.53,1.9-21.71,5.74-24.2,42.07-27.25,115.58-144.64,117.71-154.83,2.13-10.19-92.14-101.54-120.78-135.32-28.65-33.78,23.92-119.4,68.45-102Z"/>
    <path class="cls-27" d="m2030.25,775.15s-159.6,151.94-196.5,147.92c-36.91-4.03-181.26-38.89-181.26-38.89l-12.04,27.65s144.86,85.04,214.42,83.82c69.56-1.22,160.62-67.49,160.62-67.49l14.76-153.01Z"/>
    <path class="cls-19" d="m2146.09,575.27s.79,17.09-9.45,20.43c-10.25,3.34,10.56,40.21,8.92,65.12-1.63,24.9-12.65,34.9-12.65,34.9,0,0,5.29-13.7,2.33-22.17,0,0,.47,17.62-12.39,26.51-12.86,8.89-9.41,16.57-9.41,16.57,0,0-29.08-8.71-29.89-30.51,0,0-1.25,9.86-.24,13.94,0,0-25.11-18.85-26.3-40.57-1.2-21.72,19.76-40.05,29.31-40.38,9.55-.33,30.85-19.08,30.28-26.16-.57-7.09,29.5-17.66,29.5-17.66Z"/>
    <path class="cls-5" d="m2065.74,453.2c16.92-25.69,84.09-11.31,150.03,32.12,65.94,43.43,105.68,99.46,88.76,125.15-16.92,25.69-84.09,11.31-150.03-32.12-65.94-43.43-105.68-99.46-88.76-125.15Z"/>
    <path class="cls-30" d="m2213.09,1368.72c-18.29,96.92-41.84,228.78-60.01,331.93-2.15,12.18-4.23,23.95-6.21,35.21-.45,2.6-.9,5.19-1.35,7.73h-181.64c-.26-2.59-.5-5.17-.73-7.73-8.12-87.85-7.02-165.49-1.95-230,1.95-25,4.52-48.05,7.37-68.96,11.95-123.46,15.97-175.78,17.18-193.08l.26-3.81c.01-.23.03-.45.04-.64l.04-.58c.03-.35.05-.66.06-.93l.04-.76c.01-.26.03-.37.03-.37l61.92,18.42,30.29,9.01,7.14,22.68,14.28,45.36,103.67,33.45,9.59,3.08Z"/>
    <path class="cls-32" d="m2332.22,1393.13c-3.13,50.36-8.29,227.93-14.05,342.73-.13,2.62-.26,5.19-.39,7.73h-188.32c-.58-2.56-1.16-5.14-1.74-7.73-19.99-89.9-36.36-190.85-48.09-272.78-2.06.09-23.56-146.33-77.44-210.88-.49-.58-.55-1.04-.26-1.39,2.67-3.43,36.86,2.5,36.86,2.5,2.9.77,6.01,1.38,9.32,1.83,25.86,3.55,63.4-2.17,100.65-10.85h.01c10.07-2.35,20.09-4.91,29.88-7.57,27.58-7.49,53.12-15.71,71.33-21.9,4.52-1.53,8.58-2.95,12.12-4.19,2.86-1.01,5.38-1.91,7.49-2.67h.01c5.08-1.83,7.91-2.9,7.91-2.9,0,0,1.28,1.12,3.45,3.44,7.23,7.71,24.35,28.61,36.98,65.08,10.18,29.35,17.44,68.79,14.27,119.54Z"/>
    <path class="cls-19" d="m2102.87,456.12l118.53,179.84s13.55-26.55,28.6-17.03c23.48,14.84,73.93-35.95,63.41-107.65-.69-4.69-1.52-9.14-2.43-13.38-23.65-34.07-49.91-72.01-68.76-98.68-54.43-32.88-139.36,56.9-139.36,56.9Z"/>
    <path class="cls-27" d="m2050.78,819.42c16.59,15.2,38.13,28.8,66.05,39.37,104.67,39.67,158.51-46.04,182.59-106.62-13.59-10.44-27.2-14.18-35.08-16.23-6.15-1.59-12.59-3.01-18.38-4.16-3.05-.61-5.77-2.36-7.49-4.95-9.98-15.07-20.08-53.24-16.45-106.91l-5.27.67-88.34,11.73s.22,27.6-1.35,53.45c-.68,11.1-1.71,21.88-3.22,30.04-1.45,7.8-7.88,13.69-15.78,14.46h0s0,.03-.05.07c-1.4,1.72-31.63,38.99-57.22,89.07Z"/>
    <path class="cls-20" d="m2128.4,632.34s.24,27.58-1.35,53.45c48.91,1.73,77.55-41.16,89.69-65.18l-88.34,11.72Z"/>
    <path class="cls-27" d="m2110.54,655.79s115.39,9.26,120.05-62.69c4.66-71.95,22.69-119.21-50.79-128.16-73.48-8.95-89.58,17.57-96.98,41.21-7.4,23.64-2.18,145.38,27.72,149.64Z"/>
    <path class="cls-19" d="m2088.8,466.36c19.23-20.51,32.42-14.9,39.57-7.91,65.35-30.69,102.76,23.22,102.76,23.22,4.44,52.12,39.79,84.06,39.79,84.06,0,0-21.88,11.67-69.62-3.91-14.58-4.76-27.15-16.14-37.59-29.63,17.55,34.18,42.77,59.6,42.77,59.6-56.27-30.49-74.42-112.61-76.2-121.28-7.46,5.88-22.23,18.75-27.33,31.97-6.92,17.96-11.92,55.51-22.83,53.53,0,0-20.18-58.89,8.67-89.65Z"/>
    <path class="cls-31" d="m2315.88,546.69s53.66-106.81-21.33-149.04c-74.99-42.22-129.88-25.64-171.13,26l192.46,123.04Z"/>
    <path class="cls-4" d="m2318.94,944.23c4.11,4.28,6.68,6.69,6.68,6.69,87.41-10.88,91.51-100.64,91.51-100.64,0,0-68.42-90.22-132.29-110.07-15.55-4.83-38.87-8.43-38.87-8.43-19.99,16.57-43.01,40.86-64.66,60.61-24.96,22.77-67.93,30.5-83.82-9.88-6.37-16.18,8.94-49.75,10.51-52.17.04-.06.05-.08.05-.08-1.64.11-3.24.23-4.8.33-7.83.63-14.88,1.58-21.29,2.23-31.17,3.13-74.23,23.79-161.23,133.91,0,0,47.01,58.06,94.77,61.44-1.92,91.98,7.96,241.8,7.96,241.8-20.86,41.03,289.07,136.06,302.45,96.92,20.06-30.61.04-89.22-17.3-134.15-4.25-10.97-5.19-22.65-8.97-31.14-2.41-5.44-4.35-11.05-5.77-16.77-3.6-14.35-3.99-29.41-1-44.05,7.29-35.56,17.25-68.78,26.08-96.55Z"/>
    <path class="cls-17" d="m2321.73,533.02c-2.26-2.32-4.58-4.65-6.97-7h-.01c-23.14-22.63-52.64-45.74-86.5-66.87-27.25-16.99-54.39-30.88-79.86-41.3h-.01c-5.04-2.08-10.01-4-14.91-5.79-58.39-21.36-105.45-22.98-119.69-.15-15.03,24.08,10.4,68.92,60.21,114.4h.01c-.04-.39-.09-.77-.13-1.16-.04-.39-.06-.79-.1-1.19-.04-.45-.08-.91-.12-1.38-.03-.34-.05-.67-.08-1.02-.03-.57-.06-1.13-.1-1.71-.04-.72-.08-1.44-.1-2.18,0-.08-.01-.17-.01-.26-.03-.53-.04-1.07-.05-1.61v-.5c-.01-.35-.01-.7-.01-1.06-.01-1.26,0-2.55.03-3.83,0-.45.01-.92.04-1.37.01-.26.03-.52.03-.77.03-.43.04-.85.08-1.26.04-.79.09-1.56.16-2.33.06-.77.14-1.55.22-2.33,0-.04.01-.09.01-.13.03-.28.06-.57.09-.84.03-.18.04-.36.06-.53.08-.54.14-1.08.22-1.62.12-.89.26-1.77.43-2.64.03-.14.05-.3.08-.44.18-1.04.39-2.08.63-3.11.1-.52.23-1.03.36-1.53.01-.06.03-.13.04-.19-5.32-11.21-6.29-20.91-1.95-27.87,5.03-8.07,16.47-11.33,32-10.31h.03c.42.03.85.06,1.29.1h.01c5.74.44,12,1.44,18.69,3h.01c1.57.36,3.16.75,4.78,1.17,5.88,1.55,12.05,3.47,18.44,5.77h.08c19.11,6.9,40.12,17.14,61.26,30.33,8.78,5.48,17.09,11.17,24.86,16.96h.01c.77.58,1.55,1.16,2.31,1.74,35.92,27.25,59.65,56.52,62.37,76.74.72,5.38-.03,10.12-2.47,14.01-.19.31-.4.61-.63.9-.03.05-.05.09-.08.13-1.58,2.18-3.69,3.96-6.25,5.38t-.03.01c-.35.21-.7.39-1.06.55-.01-.01-.01,0-.01,0-2.63,1.29-5.71,2.22-9.15,2.78h-.03c-.33.27-.67.53-1.01.79-.24.19-.5.39-.76.57-.25.18-.49.36-.75.54-.08.05-.15.1-.23.17-.44.28-.86.58-1.29.86-.67.44-1.35.85-2.02,1.25-.33.19-.67.39-1,.57-.34.18-.67.36-1.01.53-.45.23-.89.45-1.34.66-.17.09-.33.17-.5.23-.17.08-.33.14-.5.22-.01,0-.01.01-.03.01-.04.01-.08.04-.12.05-.21.09-.41.17-.62.26-.31.12-.61.25-.91.35-.39.14-.76.28-1.13.4-.36.12-.72.23-1.07.32-.03.01-.06.03-.1.04-.3.08-.58.15-.88.22-.1.04-.21.06-.32.09-.27.06-.54.13-.82.18-.34.06-.67.13-1.02.18-.21.04-.41.06-.62.09-.25.04-.49.06-.73.09-.32.04-.63.06-.95.08-.13.01-.26.01-.39.01h-.15c-.08.01-.17.01-.25.01h-.09c-.12.01-.22.01-.34.01-.84,0-1.68-.05-2.49-.15-.81-.1-1.61-.27-2.38-.48-.39-.12-.77-.23-1.15-.36-.28-.1-.57-.22-.84-.34-.21-.08-.41-.17-.62-.27-.17-.08-.33-.15-.5-.24-.14-.06-.3-.14-.44-.23-.3-.15-.58-.32-.86-.5-.59-.37-1.19-.7-1.77-.95-.19-.09-.39-.17-.57-.24-.08-.03-.15-.06-.23-.09-.28-.12-.57-.21-.85-.28-1.12-.34-2.23-.49-3.33-.49h-.15s-.08,0-.12.01h-.16c-.14,0-.27.01-.41.03-.09,0-.18,0-.27.01-.25.03-.48.05-.71.09-.03,0-.05.01-.08.01-.1.01-.22.04-.32.06-.19.03-.37.06-.55.12-.18.04-.36.09-.55.14-.22.05-.42.12-.64.19-.14.05-.28.1-.42.15-.21.06-.43.15-.63.25h-.01c-.17.06-.32.13-.49.21-.15.08-.31.14-.45.22-.18.08-.35.18-.53.27l-.5.27c-.18.1-.35.21-.52.31-.17.1-.32.21-.49.31-.17.1-.33.21-.5.32-.17.1-.34.22-.49.35-.32.22-.64.46-.95.72-.17.12-.32.24-.46.37-.15.13-.31.26-.46.4-.31.26-.61.53-.9.8-.3.26-.59.54-.88.84-.14.14-.28.28-.42.44-.14.14-.28.28-.41.43-.17.15-.31.31-.45.46h.01c5.64,2.33,11.2,4.49,16.67,6.47,17.52,6.35,33.99,10.93,48.86,13.61,34.45,6.2,60.24,2.17,70.15-13.71,13.2-21.18-4.87-58.39-43.27-98.01Z"/>
    <path class="cls-26" d="m2252.53,1138.68c44.64,14.3,23.8-10.17,58.28-7.68-4.25-10.97-7.39-20.9-11.18-29.38-2.41-5.44-4.35-11.05-5.77-16.77-3.6-14.35-3.99-29.41-1-44.05,7.97-38.84,16.7-67.35,26.08-96.55-9.86-25.92-51.96,16.57-51.96,16.57,0,0-38.98,40.95-28.78,110.59,9.51,64.88-24.18,54.93,14.33,67.28Z"/>
    <path class="cls-32" d="m2284.83,740.21s-72.08,46.06-90.51,143.17l-21.8-6.92s9.18-69.97,92.56-141.17c0,0,6.28,1.24,8.39,1.77,2.83.71,11.36,3.15,11.36,3.15Z"/>
    <path class="cls-32" d="m2030.25,885.85l22.82,1.5c-4.57-84.2,37.68-141.68,50.18-156.75-7.83.63-14.93,1.39-21.29,2.23-46.33,70.73-51.71,153.02-51.71,153.02Z"/>
    <path class="cls-32" d="m2192.13,937.26c1.41-6,15.38-64.29,15.38-64.29,0,0,3.22-18.23-28.81-20.03-32.03-1.8-145.65-7.79-145.65-7.79,0,0-15.48,9.35-15.71,28.52-.23,19.17-15.69,128.88-15.69,128.88l-15.91,241.28,346.49,149.3s23.76-121.95-2.84-206.94c-15.51-49.57-35.52-101.33-35.52-101.33,0,0-123.3-55.97-101.73-147.59Z"/>
    <g>
      <g>
        <path class="cls-26" d="m2195.22,874.92c1.6-5.04-1.19-10.42-6.23-12.02-5.04-1.6-10.42,1.19-12.02,6.23s1.19,10.42,6.23,12.02c5.04,1.6,10.42-1.19,12.02-6.23Z"/>
        <path class="cls-4" d="m2193.58,874.4c1.6-5.04-1.19-10.42-6.22-12.02-5.04-1.6-10.42,1.19-12.02,6.23-1.6,5.04,1.19,10.42,6.23,12.02,5.04,1.6,10.42-1.19,12.02-6.23Z"/>
      </g>
      <path class="cls-32" d="m2190.39,871.49c0-.77-.62-1.39-1.39-1.39-.77,0-1.39.62-1.39,1.39s.62,1.39,1.39,1.39c.77,0,1.39-.62,1.39-1.39Z"/>
      <path class="cls-32" d="m2181.3,871.51c0-.77-.62-1.39-1.39-1.39-.77,0-1.39.62-1.39,1.39,0,.77.62,1.39,1.39,1.39.77,0,1.39-.62,1.39-1.39Z"/>
    </g>
    <g>
      <g>
        <path class="cls-26" d="m2054.33,862.76c1.6-5.04-1.19-10.42-6.23-12.02s-10.42,1.19-12.02,6.23c-1.6,5.04,1.19,10.42,6.23,12.02,5.04,1.6,10.42-1.19,12.02-6.23Z"/>
        <path class="cls-4" d="m2052.69,862.24c1.6-5.04-1.19-10.42-6.23-12.02-5.04-1.6-10.42,1.19-12.02,6.23-1.6,5.04,1.19,10.42,6.23,12.02,5.04,1.6,10.42-1.19,12.02-6.23Z"/>
      </g>
      <path class="cls-32" d="m2049.5,859.33c0-.77-.62-1.39-1.39-1.39-.77,0-1.39.62-1.39,1.39,0,.77.62,1.39,1.39,1.39.77,0,1.39-.62,1.39-1.39Z"/>
      <path class="cls-32" d="m2040.42,859.35c0-.77-.62-1.39-1.39-1.39-.77,0-1.39.62-1.39,1.39,0,.77.62,1.39,1.39,1.39.77,0,1.39-.62,1.39-1.39Z"/>
    </g>
    <path class="cls-19" d="m2299.94,588.98s.79,17.08-9.45,20.43c-10.25,3.34,10.56,40.21,8.93,65.12-1.63,24.9-12.65,34.9-12.65,34.9,0,0,5.29-13.7,2.33-22.17,0,0,.47,17.62-12.39,26.51-12.86,8.89-9.41,16.57-9.41,16.57,0,0-29.08-8.71-29.89-30.52,0,0-1.25,9.86-.24,13.94,0,0-25.11-18.85-26.3-40.57-1.2-21.72,19.76-40.05,29.31-40.38,9.55-.33,30.85-19.08,30.28-26.16-.57-7.09,29.5-17.66,29.5-17.66Z"/>
    <path class="cls-22" d="m2146.11,615.58s-17.19,10.42-29.43,9.21c-12.12-1.2-18.72-15.82-18.72-15.82,0,0,23.51-3.47,48.15,6.61Z"/>
    <g>
      <path class="cls-9" d="m2255.15,1236.72h-231.58c-9.69,0-20.75-7.86-24.68-17.55l-58.3-143.51c-3.94-9.69.73-17.55,10.42-17.55h231.58c9.7,0,20.75,7.86,24.68,17.55l58.3,143.51c3.94,9.69-.73,17.55-10.42,17.55Z"/>
      <g>
        <path class="cls-28" d="m2241.33,1236.72h-231.58c-9.69,0-20.75-7.86-24.68-17.55l-58.3-143.51c-3.94-9.69.73-17.55,10.42-17.55h231.58c9.69,0,20.75,7.86,24.68,17.55l58.3,143.51c3.94,9.69-.73,17.55-10.42,17.55Z"/>
        <g>
          <path class="cls-32" d="m1949.9,1069.11h0c4.41,0,9.48,3.61,11.27,8.02h0c1.79,4.41-.35,8.02-4.76,8.02h0c-4.41,0-9.48-3.61-11.27-8.02h0c-1.79-4.41.35-8.02,4.76-8.02Z"/>
          <path class="cls-32" d="m1975.36,1072.45h0c2.57,0,5.53,2.1,6.58,4.68h0c1.04,2.57-.21,4.68-2.78,4.68h0c-2.57,0-5.53-2.11-6.58-4.68h0c-1.04-2.57.21-4.68,2.78-4.68Z"/>
        </g>
      </g>
      <path class="cls-9" d="m2065.95,1142.87c-3.86-9.51.71-17.23,10.23-17.23s20.36,7.71,24.22,17.23c3.86,9.51-.71,17.22-10.23,17.22s-20.36-7.71-24.22-17.22Z"/>
    </g>
    <g>
      <path class="cls-27" d="m2282.73,1172.95s-31.84-18.16-39.52-26.55c-4.95-5.42-5.25,1.55-4.93,3.51.64,3.92,1.22,11.7,10.29,19.11,13.04,10.66,34.17,3.93,34.17,3.93Z"/>
      <path class="cls-27" d="m2282.73,1172.95s-57.44-17.25-70.66-15.75c-13.23,1.5-43.44,10.91-45.87,13.37-2.43,2.45,7.97,5.05,15.88,2.73,10.14-2.96,26.11.37,26.11.37,0,0-32.2,6.98-40.26,10.53-.8.35-.95,1.45-.26,2,1.93,1.53,6.89,2.49,14.01,1.5,10.23-1.42,28.17-1.17,28.17-1.17l-36.6,7.96c-.46.1-.8.5-.78.97.06,1.74,2.98,3.6,11.54,3.99,6.59.3,28.91-3,28.91-3l-19.88,10.49s4.82,3.45,14.97.1c6.96-2.3,27.74-7.5,32.53-6.49,4.8,1.01,28.73,9.46,40.03,8.02,11.04-1.41,15.83-3.5,15.83-3.5l-13.66-32.11Z"/>
    </g>
    <g>
      <path class="cls-27" d="m1652.49,884.18s-28.82-30.79-39.41-34.46c-10.59-3.67-48.39-10.05-48.39-10.05,0,0,.15,9.04,17.07,15.29s20.46,35.58,30.47,43.88c10,8.3,36.45,15.49,36.45,15.49l3.81-30.15Z"/>
      <path class="cls-27" d="m1640.45,911.84s-28.08-1.23-37.2-6.96c-9.12-5.73-23.98-13.22-21.11-17.78,2.87-4.56,33.83-1.12,33.83-1.12l24.49,25.86Z"/>
      <path class="cls-27" d="m1610.81,855.09c-1.47-.66-38.91-25.69-38.91-25.69,0,0-3.15,11.86,2.36,14.12,5.51,2.25,36.55,11.58,36.55,11.58Z"/>
    </g>
    <path class="cls-27" d="m2442.37,1096.99c-33.59,33.92-80.97,72.6-145.98,108.07,0,0-7.37-1.61-18.62-9.65-17.54-12.53,1.89-21.71,5.74-24.19,19.06-12.35,44.6-43.22,67.01-74.23h91.86Z"/>
  </g>
  <path class="cls-3" d="m597.94,1740.6h-280.58c-.04-.1-.08-.21-.12-.31-.35-.92-.81-2.15-1.4-3.73l-.23-.46v-.23s-.23-.25-.23-.48c-.94-1.88-1.65-4.01-2.59-6.59-.48-1.19-.94-2.6-1.65-4.01v-.48l-.23-.23c-3.24-8.4-7.24-19.35-11.87-32.57-.41-1.2-.84-2.41-1.28-3.63-3.47-9.99-7.28-21.18-11.34-33.5-1.87-5.79-3.79-11.83-5.76-18.11,27.73-7.72,63.98-13.04,96.25-2.56,20.87,6.78,35,16.81,45.94,26.77,22.21,20.21,31.39,40.19,57.25,32.42,6.42-1.93,14.09-3.08,22.4-3.44,41.62-1.87,99.18,15.7,95.45,51.14Z"/>
</svg>